<svg width="430" height="1000" viewBox="0 0 430 1000" fill="none" xmlns="http://www.w3.org/2000/svg">
<g clip-path="url(#clip0_510_354)">
<rect width="430" height="1000" fill="white"/>
<rect y="80" width="430" height="920" fill="white"/>
<path d="M104.352 553H99.3242V535C99.3242 534.648 99.2539 534.32 99.1133 534.016C98.9844 533.711 98.8027 533.447 98.5684 533.225C98.3457 532.99 98.082 532.809 97.7773 532.68C97.4727 532.551 97.1445 532.486 96.793 532.486C96.4414 532.486 96.1133 532.551 95.8086 532.68C95.5039 532.809 95.2344 532.99 95 533.225C94.7773 533.447 94.6016 533.711 94.4727 534.016C94.3438 534.32 94.2793 534.648 94.2793 535V553H89.2344V535C89.2344 534.648 89.1699 534.32 89.041 534.016C88.9121 533.711 88.7305 533.447 88.4961 533.225C88.2734 532.99 88.0098 532.809 87.7051 532.68C87.4004 532.551 87.0723 532.486 86.7207 532.486C86.3691 532.486 86.041 532.551 85.7363 532.68C85.4316 532.809 85.1621 532.99 84.9277 533.225C84.7051 533.447 84.5293 533.711 84.4004 534.016C84.2715 534.32 84.207 534.648 84.207 535V553H79.1621V535C79.1621 533.957 79.3555 532.979 79.7422 532.064C80.1406 531.139 80.6797 530.336 81.3594 529.656C82.0508 528.965 82.8535 528.426 83.7676 528.039C84.6934 527.641 85.6777 527.441 86.7207 527.441C87.6582 527.441 88.5605 527.611 89.4277 527.951C90.2949 528.279 91.0742 528.76 91.7656 529.393C92.457 528.76 93.2305 528.279 94.0859 527.951C94.9531 527.611 95.8555 527.441 96.793 527.441C97.8359 527.441 98.8145 527.641 99.7285 528.039C100.654 528.426 101.457 528.965 102.137 529.656C102.828 530.336 103.367 531.139 103.754 532.064C104.152 532.979 104.352 533.957 104.352 535V553ZM126.377 553H125.217L123.354 550.416C122.896 550.826 122.41 551.213 121.895 551.576C121.391 551.928 120.857 552.238 120.295 552.508C119.732 552.766 119.152 552.971 118.555 553.123C117.969 553.275 117.371 553.352 116.762 553.352C115.438 553.352 114.189 553.129 113.018 552.684C111.857 552.238 110.838 551.594 109.959 550.75C109.092 549.895 108.406 548.852 107.902 547.621C107.398 546.391 107.146 544.99 107.146 543.42C107.146 541.955 107.398 540.613 107.902 539.395C108.406 538.164 109.092 537.109 109.959 536.23C110.838 535.352 111.857 534.672 113.018 534.191C114.189 533.699 115.438 533.453 116.762 533.453C117.371 533.453 117.975 533.529 118.572 533.682C119.17 533.834 119.75 534.045 120.312 534.314C120.875 534.584 121.408 534.9 121.912 535.264C122.428 535.627 122.908 536.02 123.354 536.441L125.217 534.209H126.377V553ZM121.543 543.42C121.543 542.764 121.414 542.131 121.156 541.521C120.91 540.9 120.57 540.355 120.137 539.887C119.703 539.406 119.193 539.025 118.607 538.744C118.033 538.451 117.418 538.305 116.762 538.305C116.105 538.305 115.484 538.416 114.898 538.639C114.324 538.861 113.82 539.189 113.387 539.623C112.965 540.057 112.631 540.596 112.385 541.24C112.139 541.873 112.016 542.6 112.016 543.42C112.016 544.24 112.139 544.973 112.385 545.617C112.631 546.25 112.965 546.783 113.387 547.217C113.82 547.65 114.324 547.979 114.898 548.201C115.484 548.424 116.105 548.535 116.762 548.535C117.418 548.535 118.033 548.395 118.607 548.113C119.193 547.82 119.703 547.439 120.137 546.971C120.57 546.49 120.91 545.945 121.156 545.336C121.414 544.715 121.543 544.076 121.543 543.42ZM134.885 553H130.051V526.686H134.885V543.279L142.039 534.209H147.559L141.318 542.049L147.559 553H142.039L138.225 546.162L134.885 550.592V553ZM156.348 548.395C156.535 548.453 156.723 548.494 156.91 548.518C157.098 548.529 157.285 548.535 157.473 548.535C157.941 548.535 158.393 548.471 158.826 548.342C159.26 548.213 159.664 548.031 160.039 547.797C160.426 547.551 160.766 547.258 161.059 546.918C161.363 546.566 161.609 546.18 161.797 545.758L165.312 549.291C164.867 549.924 164.352 550.492 163.766 550.996C163.191 551.5 162.564 551.928 161.885 552.279C161.217 552.631 160.508 552.895 159.758 553.07C159.02 553.258 158.258 553.352 157.473 553.352C156.148 553.352 154.9 553.105 153.729 552.613C152.568 552.121 151.549 551.436 150.67 550.557C149.803 549.678 149.117 548.635 148.613 547.428C148.109 546.209 147.857 544.873 147.857 543.42C147.857 541.932 148.109 540.572 148.613 539.342C149.117 538.111 149.803 537.062 150.67 536.195C151.549 535.328 152.568 534.654 153.729 534.174C154.9 533.693 156.148 533.453 157.473 533.453C158.258 533.453 159.025 533.547 159.775 533.734C160.525 533.922 161.234 534.191 161.902 534.543C162.582 534.895 163.215 535.328 163.801 535.844C164.387 536.348 164.902 536.916 165.348 537.549L156.348 548.395ZM158.809 538.498C158.586 538.416 158.363 538.363 158.141 538.34C157.93 538.316 157.707 538.305 157.473 538.305C156.816 538.305 156.195 538.428 155.609 538.674C155.035 538.908 154.531 539.248 154.098 539.693C153.676 540.139 153.342 540.678 153.096 541.311C152.85 541.932 152.727 542.635 152.727 543.42C152.727 543.596 152.732 543.795 152.744 544.018C152.768 544.24 152.797 544.469 152.832 544.703C152.879 544.926 152.932 545.143 152.99 545.354C153.049 545.564 153.125 545.752 153.219 545.916L158.809 538.498ZM183.418 553H178.373V527.793H183.418V553ZM205.514 553H204.354L202.49 550.416C202.033 550.826 201.547 551.213 201.031 551.576C200.527 551.928 199.994 552.238 199.432 552.508C198.869 552.766 198.289 552.971 197.691 553.123C197.105 553.275 196.508 553.352 195.898 553.352C194.574 553.352 193.326 553.105 192.154 552.613C190.994 552.109 189.975 551.418 189.096 550.539C188.229 549.648 187.543 548.6 187.039 547.393C186.535 546.174 186.283 544.85 186.283 543.42C186.283 542.002 186.535 540.684 187.039 539.465C187.543 538.246 188.229 537.191 189.096 536.301C189.975 535.41 190.994 534.713 192.154 534.209C193.326 533.705 194.574 533.453 195.898 533.453C196.32 533.453 196.754 533.488 197.199 533.559C197.656 533.629 198.096 533.746 198.518 533.91C198.951 534.062 199.355 534.268 199.73 534.525C200.105 534.783 200.422 535.1 200.68 535.475V526.686H205.514V553ZM200.68 543.42C200.68 542.764 200.551 542.131 200.293 541.521C200.047 540.9 199.707 540.355 199.273 539.887C198.84 539.406 198.33 539.025 197.744 538.744C197.17 538.451 196.555 538.305 195.898 538.305C195.242 538.305 194.621 538.422 194.035 538.656C193.461 538.891 192.957 539.23 192.523 539.676C192.102 540.109 191.768 540.643 191.521 541.275C191.275 541.908 191.152 542.623 191.152 543.42C191.152 544.111 191.275 544.768 191.521 545.389C191.768 546.01 192.102 546.555 192.523 547.023C192.957 547.492 193.461 547.861 194.035 548.131C194.621 548.4 195.242 548.535 195.898 548.535C196.555 548.535 197.17 548.395 197.744 548.113C198.33 547.82 198.84 547.439 199.273 546.971C199.707 546.49 200.047 545.945 200.293 545.336C200.551 544.715 200.68 544.076 200.68 543.42ZM216.676 548.395C216.863 548.453 217.051 548.494 217.238 548.518C217.426 548.529 217.613 548.535 217.801 548.535C218.27 548.535 218.721 548.471 219.154 548.342C219.588 548.213 219.992 548.031 220.367 547.797C220.754 547.551 221.094 547.258 221.387 546.918C221.691 546.566 221.938 546.18 222.125 545.758L225.641 549.291C225.195 549.924 224.68 550.492 224.094 550.996C223.52 551.5 222.893 551.928 222.213 552.279C221.545 552.631 220.836 552.895 220.086 553.07C219.348 553.258 218.586 553.352 217.801 553.352C216.477 553.352 215.229 553.105 214.057 552.613C212.896 552.121 211.877 551.436 210.998 550.557C210.131 549.678 209.445 548.635 208.941 547.428C208.438 546.209 208.186 544.873 208.186 543.42C208.186 541.932 208.438 540.572 208.941 539.342C209.445 538.111 210.131 537.062 210.998 536.195C211.877 535.328 212.896 534.654 214.057 534.174C215.229 533.693 216.477 533.453 217.801 533.453C218.586 533.453 219.354 533.547 220.104 533.734C220.854 533.922 221.562 534.191 222.23 534.543C222.91 534.895 223.543 535.328 224.129 535.844C224.715 536.348 225.23 536.916 225.676 537.549L216.676 548.395ZM219.137 538.498C218.914 538.416 218.691 538.363 218.469 538.34C218.258 538.316 218.035 538.305 217.801 538.305C217.145 538.305 216.523 538.428 215.938 538.674C215.363 538.908 214.859 539.248 214.426 539.693C214.004 540.139 213.67 540.678 213.424 541.311C213.178 541.932 213.055 542.635 213.055 543.42C213.055 543.596 213.061 543.795 213.072 544.018C213.096 544.24 213.125 544.469 213.16 544.703C213.207 544.926 213.26 545.143 213.318 545.354C213.377 545.564 213.453 545.752 213.547 545.916L219.137 538.498ZM246.189 553H245.029L243.166 550.416C242.709 550.826 242.223 551.213 241.707 551.576C241.203 551.928 240.67 552.238 240.107 552.508C239.545 552.766 238.965 552.971 238.367 553.123C237.781 553.275 237.184 553.352 236.574 553.352C235.25 553.352 234.002 553.129 232.83 552.684C231.67 552.238 230.65 551.594 229.771 550.75C228.904 549.895 228.219 548.852 227.715 547.621C227.211 546.391 226.959 544.99 226.959 543.42C226.959 541.955 227.211 540.613 227.715 539.395C228.219 538.164 228.904 537.109 229.771 536.23C230.65 535.352 231.67 534.672 232.83 534.191C234.002 533.699 235.25 533.453 236.574 533.453C237.184 533.453 237.787 533.529 238.385 533.682C238.982 533.834 239.562 534.045 240.125 534.314C240.688 534.584 241.221 534.9 241.725 535.264C242.24 535.627 242.721 536.02 243.166 536.441L245.029 534.209H246.189V553ZM241.355 543.42C241.355 542.764 241.227 542.131 240.969 541.521C240.723 540.9 240.383 540.355 239.949 539.887C239.516 539.406 239.006 539.025 238.42 538.744C237.846 538.451 237.23 538.305 236.574 538.305C235.918 538.305 235.297 538.416 234.711 538.639C234.137 538.861 233.633 539.189 233.199 539.623C232.777 540.057 232.443 540.596 232.197 541.24C231.951 541.873 231.828 542.6 231.828 543.42C231.828 544.24 231.951 544.973 232.197 545.617C232.443 546.25 232.777 546.783 233.199 547.217C233.633 547.65 234.137 547.979 234.711 548.201C235.297 548.424 235.918 548.535 236.574 548.535C237.23 548.535 237.846 548.395 238.42 548.113C239.006 547.82 239.516 547.439 239.949 546.971C240.383 546.49 240.723 545.945 240.969 545.336C241.227 544.715 241.355 544.076 241.355 543.42ZM254.697 553H249.863V526.686H254.697V553ZM268.707 553H257.738V548.219H268.707C269.035 548.219 269.316 548.102 269.551 547.867C269.785 547.633 269.902 547.352 269.902 547.023C269.902 546.684 269.785 546.461 269.551 546.355C269.316 546.25 269.035 546.197 268.707 546.197H263.715C262.883 546.197 262.104 546.039 261.377 545.723C260.65 545.406 260.018 544.979 259.479 544.439C258.939 543.889 258.512 543.25 258.195 542.523C257.891 541.797 257.738 541.018 257.738 540.186C257.738 539.354 257.891 538.574 258.195 537.848C258.512 537.121 258.939 536.488 259.479 535.949C260.018 535.41 260.65 534.988 261.377 534.684C262.104 534.367 262.883 534.209 263.715 534.209H273.436V538.99H263.715C263.387 538.99 263.105 539.107 262.871 539.342C262.637 539.576 262.52 539.857 262.52 540.186C262.52 540.525 262.637 540.818 262.871 541.064C263.105 541.299 263.387 541.416 263.715 541.416H268.707C269.527 541.416 270.301 541.557 271.027 541.838C271.754 542.107 272.387 542.488 272.926 542.98C273.465 543.473 273.893 544.064 274.209 544.756C274.525 545.447 274.684 546.203 274.684 547.023C274.684 547.855 274.525 548.635 274.209 549.361C273.893 550.076 273.465 550.709 272.926 551.26C272.387 551.799 271.754 552.227 271.027 552.543C270.301 552.848 269.527 553 268.707 553ZM292.895 532.838V542.928H297.939C298.631 542.928 299.281 542.799 299.891 542.541C300.5 542.271 301.033 541.908 301.49 541.451C301.947 540.994 302.305 540.461 302.562 539.852C302.832 539.23 302.967 538.574 302.967 537.883C302.967 537.191 302.832 536.541 302.562 535.932C302.305 535.311 301.947 534.771 301.49 534.314C301.033 533.857 300.5 533.5 299.891 533.242C299.281 532.973 298.631 532.838 297.939 532.838H292.895ZM292.895 553H287.85V527.793H297.939C298.865 527.793 299.756 527.916 300.611 528.162C301.467 528.396 302.264 528.736 303.002 529.182C303.752 529.615 304.432 530.143 305.041 530.764C305.662 531.373 306.189 532.053 306.623 532.803C307.068 533.553 307.408 534.355 307.643 535.211C307.889 536.066 308.012 536.957 308.012 537.883C308.012 538.75 307.9 539.594 307.678 540.414C307.467 541.234 307.156 542.014 306.746 542.752C306.348 543.49 305.855 544.17 305.27 544.791C304.684 545.412 304.027 545.951 303.301 546.408L306.096 553H300.734L298.537 547.92L292.895 547.955V553ZM318.102 548.395C318.289 548.453 318.477 548.494 318.664 548.518C318.852 548.529 319.039 548.535 319.227 548.535C319.695 548.535 320.146 548.471 320.58 548.342C321.014 548.213 321.418 548.031 321.793 547.797C322.18 547.551 322.52 547.258 322.812 546.918C323.117 546.566 323.363 546.18 323.551 545.758L327.066 549.291C326.621 549.924 326.105 550.492 325.52 550.996C324.945 551.5 324.318 551.928 323.639 552.279C322.971 552.631 322.262 552.895 321.512 553.07C320.773 553.258 320.012 553.352 319.227 553.352C317.902 553.352 316.654 553.105 315.482 552.613C314.322 552.121 313.303 551.436 312.424 550.557C311.557 549.678 310.871 548.635 310.367 547.428C309.863 546.209 309.611 544.873 309.611 543.42C309.611 541.932 309.863 540.572 310.367 539.342C310.871 538.111 311.557 537.062 312.424 536.195C313.303 535.328 314.322 534.654 315.482 534.174C316.654 533.693 317.902 533.453 319.227 533.453C320.012 533.453 320.779 533.547 321.529 533.734C322.279 533.922 322.988 534.191 323.656 534.543C324.336 534.895 324.969 535.328 325.555 535.844C326.141 536.348 326.656 536.916 327.102 537.549L318.102 548.395ZM320.562 538.498C320.34 538.416 320.117 538.363 319.895 538.34C319.684 538.316 319.461 538.305 319.227 538.305C318.57 538.305 317.949 538.428 317.363 538.674C316.789 538.908 316.285 539.248 315.852 539.693C315.43 540.139 315.096 540.678 314.85 541.311C314.604 541.932 314.48 542.635 314.48 543.42C314.48 543.596 314.486 543.795 314.498 544.018C314.521 544.24 314.551 544.469 314.586 544.703C314.633 544.926 314.686 545.143 314.744 545.354C314.803 545.564 314.879 545.752 314.973 545.916L320.562 538.498ZM347.615 553H346.455L344.592 550.416C344.135 550.826 343.648 551.213 343.133 551.576C342.629 551.928 342.096 552.238 341.533 552.508C340.971 552.766 340.391 552.971 339.793 553.123C339.207 553.275 338.609 553.352 338 553.352C336.676 553.352 335.428 553.129 334.256 552.684C333.096 552.238 332.076 551.594 331.197 550.75C330.33 549.895 329.645 548.852 329.141 547.621C328.637 546.391 328.385 544.99 328.385 543.42C328.385 541.955 328.637 540.613 329.141 539.395C329.645 538.164 330.33 537.109 331.197 536.23C332.076 535.352 333.096 534.672 334.256 534.191C335.428 533.699 336.676 533.453 338 533.453C338.609 533.453 339.213 533.529 339.811 533.682C340.408 533.834 340.988 534.045 341.551 534.314C342.113 534.584 342.646 534.9 343.15 535.264C343.666 535.627 344.146 536.02 344.592 536.441L346.455 534.209H347.615V553ZM342.781 543.42C342.781 542.764 342.652 542.131 342.395 541.521C342.148 540.9 341.809 540.355 341.375 539.887C340.941 539.406 340.432 539.025 339.846 538.744C339.271 538.451 338.656 538.305 338 538.305C337.344 538.305 336.723 538.416 336.137 538.639C335.562 538.861 335.059 539.189 334.625 539.623C334.203 540.057 333.869 540.596 333.623 541.24C333.377 541.873 333.254 542.6 333.254 543.42C333.254 544.24 333.377 544.973 333.623 545.617C333.869 546.25 334.203 546.783 334.625 547.217C335.059 547.65 335.562 547.979 336.137 548.201C336.723 548.424 337.344 548.535 338 548.535C338.656 548.535 339.271 548.395 339.846 548.113C340.432 547.82 340.941 547.439 341.375 546.971C341.809 546.49 342.148 545.945 342.395 545.336C342.652 544.715 342.781 544.076 342.781 543.42ZM356.123 553H351.289V526.686H356.123V553Z" fill="#111111"/>
<path d="M163.484 579.67C163.311 579.67 163.161 579.633 163.033 579.561C162.906 579.488 162.842 579.351 162.842 579.15C162.842 578.95 162.906 578.813 163.033 578.74C163.161 578.658 163.311 578.617 163.484 578.617H167.627V576.73H164.988C164.815 576.73 164.665 576.694 164.537 576.621C164.419 576.548 164.359 576.411 164.359 576.211C164.359 576.01 164.419 575.874 164.537 575.801C164.665 575.728 164.815 575.691 164.988 575.691H167.627V574.188H165.932C165.521 574.188 165.198 574.115 164.961 573.969C164.733 573.823 164.619 573.518 164.619 573.053V568.965C164.619 568.199 164.997 567.816 165.754 567.816H170.621C171.387 567.816 171.77 568.199 171.77 568.965V573.053C171.77 573.818 171.387 574.201 170.621 574.201L168.666 574.188V575.691H171.332C171.514 575.691 171.66 575.732 171.77 575.814C171.888 575.887 171.947 576.02 171.947 576.211C171.947 576.402 171.888 576.539 171.77 576.621C171.66 576.694 171.514 576.73 171.332 576.73H168.666V578.617H171.797C171.979 578.617 172.13 578.658 172.248 578.74C172.376 578.813 172.439 578.95 172.439 579.15C172.439 579.351 172.376 579.488 172.248 579.561C172.13 579.633 171.979 579.67 171.797 579.67H163.484ZM160.148 578.576C159.757 578.576 159.561 578.376 159.561 577.975C159.561 577.774 159.638 577.624 159.793 577.523C159.948 577.423 160.107 577.355 160.271 577.318L161.475 577.004V573.23H160.436C160.253 573.23 160.098 573.194 159.971 573.121C159.843 573.039 159.779 572.898 159.779 572.697C159.779 572.488 159.843 572.346 159.971 572.273C160.098 572.201 160.253 572.164 160.436 572.164H161.475V569.129H160.258C160.076 569.129 159.921 569.092 159.793 569.02C159.665 568.938 159.602 568.796 159.602 568.596C159.602 568.386 159.665 568.245 159.793 568.172C159.921 568.09 160.076 568.049 160.258 568.049H163.607C163.79 568.049 163.945 568.09 164.072 568.172C164.2 568.245 164.264 568.386 164.264 568.596C164.264 568.796 164.2 568.938 164.072 569.02C163.945 569.092 163.79 569.129 163.607 569.129H162.582V572.164C162.691 572.164 162.828 572.16 162.992 572.15C163.165 572.132 163.334 572.132 163.498 572.15C163.671 572.169 163.812 572.219 163.922 572.301C164.031 572.383 164.086 572.515 164.086 572.697C164.086 572.88 164.031 573.012 163.922 573.094C163.812 573.176 163.671 573.226 163.498 573.244C163.334 573.262 163.165 573.267 162.992 573.258C162.828 573.24 162.691 573.23 162.582 573.23V576.703C162.609 576.694 162.682 576.676 162.801 576.648C162.928 576.612 163.065 576.576 163.211 576.539C163.366 576.493 163.498 576.457 163.607 576.43C163.726 576.393 163.785 576.375 163.785 576.375C164.122 576.375 164.291 576.553 164.291 576.908C164.291 576.99 164.268 577.086 164.223 577.195C164.177 577.296 164.113 577.359 164.031 577.387C164.031 577.387 163.913 577.428 163.676 577.51C163.439 577.592 163.138 577.692 162.773 577.811C162.418 577.92 162.053 578.034 161.68 578.152C161.306 578.271 160.978 578.371 160.695 578.453C160.413 578.535 160.23 578.576 160.148 578.576ZM165.686 570.469H167.627V568.814H166.164C166.018 568.814 165.9 568.86 165.809 568.951C165.727 569.033 165.686 569.147 165.686 569.293V570.469ZM168.666 570.469H170.662V569.293C170.662 569.147 170.617 569.033 170.525 568.951C170.443 568.86 170.329 568.814 170.184 568.814H168.666V570.469ZM166.164 573.203H167.627V571.398H165.686V572.725C165.686 572.87 165.727 572.989 165.809 573.08C165.9 573.162 166.018 573.203 166.164 573.203ZM168.666 573.203H170.184C170.329 573.203 170.443 573.162 170.525 573.08C170.617 572.989 170.662 572.87 170.662 572.725V571.398H168.666V573.203ZM176.773 575.637C176.582 575.637 176.45 575.582 176.377 575.473C176.304 575.354 176.268 575.208 176.268 575.035V571.713C176.131 572.077 175.967 572.433 175.775 572.779C175.584 573.117 175.365 573.44 175.119 573.75C175.064 573.823 174.973 573.932 174.846 574.078C174.727 574.224 174.6 574.356 174.463 574.475C174.326 574.593 174.208 574.652 174.107 574.652C173.934 574.652 173.807 574.602 173.725 574.502C173.652 574.402 173.615 574.27 173.615 574.105C173.615 573.978 173.652 573.864 173.725 573.764C173.807 573.654 173.889 573.559 173.971 573.477C174.436 572.993 174.85 572.492 175.215 571.973C175.579 571.453 175.885 570.883 176.131 570.264H174.354C174.18 570.264 174.035 570.227 173.916 570.154C173.798 570.072 173.738 569.936 173.738 569.744C173.738 569.553 173.798 569.421 173.916 569.348C174.035 569.275 174.18 569.238 174.354 569.238H176.268V567.926C176.268 567.743 176.304 567.593 176.377 567.475C176.45 567.356 176.587 567.297 176.787 567.297C176.988 567.297 177.12 567.356 177.184 567.475C177.257 567.593 177.293 567.743 177.293 567.926V569.238H178.605C178.788 569.238 178.938 569.275 179.057 569.348C179.175 569.421 179.234 569.557 179.234 569.758C179.234 569.958 179.175 570.095 179.057 570.168C178.938 570.232 178.788 570.264 178.605 570.264H177.293V571.453C177.384 571.28 177.516 571.193 177.689 571.193C177.762 571.193 177.876 571.266 178.031 571.412C178.195 571.558 178.368 571.736 178.551 571.945C178.733 572.146 178.888 572.337 179.016 572.52C179.143 572.693 179.207 572.816 179.207 572.889C179.207 573.062 179.157 573.185 179.057 573.258C178.956 573.331 178.829 573.367 178.674 573.367C178.592 573.367 178.478 573.294 178.332 573.148C178.195 572.993 178.049 572.816 177.895 572.615C177.749 572.406 177.617 572.214 177.498 572.041C177.389 571.868 177.32 571.758 177.293 571.713V575.035C177.293 575.208 177.252 575.354 177.17 575.473C177.097 575.582 176.965 575.637 176.773 575.637ZM180.602 575.445C179.882 575.445 179.521 575.076 179.521 574.338V569.006C179.521 568.268 179.882 567.898 180.602 567.898H184.238C184.639 567.898 184.945 567.98 185.154 568.145C185.364 568.299 185.469 568.591 185.469 569.02V574.338C185.469 575.076 185.109 575.445 184.389 575.445H180.602ZM180.574 570.113H184.375V569.32C184.375 569.02 184.229 568.869 183.938 568.869H181.012C180.72 568.869 180.574 569.02 180.574 569.32V570.113ZM180.574 572.219H184.375V571.016H180.574V572.219ZM181.012 574.488H183.938C184.229 574.488 184.375 574.342 184.375 574.051V573.121H180.574V574.051C180.574 574.342 180.72 574.488 181.012 574.488ZM180.561 577.674C180.406 577.674 180.273 577.605 180.164 577.469C180.055 577.332 179.964 577.204 179.891 577.086C179.854 577.013 179.79 576.908 179.699 576.771C179.608 576.635 179.521 576.498 179.439 576.361C179.367 576.225 179.33 576.12 179.33 576.047C179.33 575.71 179.508 575.541 179.863 575.541C179.964 575.541 180.082 575.605 180.219 575.732C180.365 575.851 180.506 575.997 180.643 576.17C180.788 576.343 180.907 576.516 180.998 576.689C181.098 576.854 181.148 576.981 181.148 577.072C181.148 577.473 180.952 577.674 180.561 577.674ZM179.781 579.834C179.672 579.834 179.508 579.829 179.289 579.82C179.07 579.82 178.833 579.816 178.578 579.807C178.332 579.798 178.104 579.779 177.895 579.752C177.694 579.725 177.544 579.684 177.443 579.629C177.124 579.465 176.965 579.191 176.965 578.809V576.512C176.965 576.311 177.006 576.147 177.088 576.02C177.17 575.883 177.32 575.814 177.539 575.814C177.758 575.814 177.908 575.883 177.99 576.02C178.072 576.147 178.113 576.311 178.113 576.512V578.316C178.113 578.453 178.173 578.553 178.291 578.617C178.419 578.672 178.569 578.708 178.742 578.727C178.915 578.745 179.084 578.754 179.248 578.754C179.412 578.745 179.535 578.74 179.617 578.74C179.699 578.74 179.85 578.74 180.068 578.74C180.287 578.74 180.52 578.736 180.766 578.727C181.021 578.708 181.253 578.69 181.463 578.672C181.673 578.645 181.809 578.613 181.873 578.576C182.001 578.494 182.078 578.38 182.105 578.234C182.133 578.089 182.156 577.938 182.174 577.783C182.201 577.619 182.251 577.482 182.324 577.373C182.406 577.264 182.557 577.209 182.775 577.209C183.195 577.209 183.404 577.419 183.404 577.838C183.404 578.13 183.363 578.439 183.281 578.768C183.208 579.087 183.035 579.333 182.762 579.506C182.634 579.588 182.434 579.652 182.16 579.697C181.896 579.743 181.609 579.775 181.299 579.793C180.989 579.811 180.697 579.82 180.424 579.82C180.15 579.829 179.936 579.834 179.781 579.834ZM174.312 579.533C173.911 579.533 173.711 579.324 173.711 578.904C173.711 578.84 173.72 578.777 173.738 578.713C173.766 578.649 173.793 578.59 173.82 578.535C173.984 578.216 174.135 577.902 174.271 577.592C174.408 577.273 174.531 576.945 174.641 576.607C174.686 576.462 174.75 576.339 174.832 576.238C174.923 576.138 175.055 576.088 175.229 576.088C175.602 576.088 175.789 576.275 175.789 576.648C175.789 576.867 175.743 577.122 175.652 577.414C175.561 577.706 175.452 577.993 175.324 578.275C175.197 578.549 175.083 578.781 174.982 578.973C174.919 579.1 174.832 579.223 174.723 579.342C174.613 579.469 174.477 579.533 174.312 579.533ZM185.633 579.232C185.551 579.232 185.46 579.214 185.359 579.178C185.259 579.141 185.186 579.087 185.141 579.014C185.004 578.786 184.867 578.562 184.73 578.344C184.603 578.116 184.471 577.893 184.334 577.674C184.288 577.601 184.215 577.501 184.115 577.373C184.015 577.245 183.919 577.113 183.828 576.977C183.746 576.831 183.705 576.712 183.705 576.621C183.705 576.266 183.892 576.088 184.266 576.088C184.32 576.088 184.389 576.102 184.471 576.129C184.553 576.156 184.612 576.193 184.648 576.238C184.658 576.257 184.717 576.339 184.826 576.484C184.945 576.621 185.081 576.794 185.236 577.004C185.4 577.214 185.56 577.428 185.715 577.646C185.87 577.865 185.997 578.061 186.098 578.234C186.207 578.408 186.262 578.531 186.262 578.604C186.262 579.023 186.052 579.232 185.633 579.232ZM194.93 579.588C194.62 579.588 194.26 579.579 193.85 579.561C193.449 579.551 193.043 579.515 192.633 579.451C192.223 579.387 191.84 579.278 191.484 579.123C191.138 578.968 190.855 578.754 190.637 578.48C190.427 578.198 190.322 577.833 190.322 577.387C190.322 576.895 190.459 576.457 190.732 576.074C191.006 575.691 191.352 575.354 191.771 575.062C192.191 574.762 192.633 574.507 193.098 574.297C193.562 574.087 193.986 573.914 194.369 573.777C194.333 573.467 194.223 573.226 194.041 573.053C193.868 572.88 193.622 572.793 193.303 572.793C192.774 572.793 192.309 572.88 191.908 573.053C191.516 573.226 191.174 573.44 190.883 573.695C190.591 573.951 190.336 574.206 190.117 574.461C189.898 574.716 189.702 574.93 189.529 575.104C189.365 575.277 189.21 575.363 189.064 575.363C188.673 575.363 188.477 575.181 188.477 574.816C188.477 574.689 188.531 574.552 188.641 574.406C188.759 574.251 188.859 574.128 188.941 574.037C189.47 573.472 189.944 572.852 190.363 572.178C190.783 571.503 191.193 570.838 191.594 570.182H189.188C188.996 570.182 188.832 570.141 188.695 570.059C188.559 569.977 188.49 569.831 188.49 569.621C188.49 569.411 188.559 569.266 188.695 569.184C188.832 569.102 188.996 569.061 189.188 569.061H192.25C192.305 568.96 192.368 568.824 192.441 568.65C192.523 568.468 192.615 568.29 192.715 568.117C192.815 567.935 192.924 567.785 193.043 567.666C193.171 567.538 193.307 567.475 193.453 567.475C193.626 567.475 193.768 567.511 193.877 567.584C193.986 567.657 194.041 567.789 194.041 567.98C194.041 568.053 194.005 568.163 193.932 568.309C193.868 568.454 193.795 568.6 193.713 568.746C193.631 568.892 193.572 568.997 193.535 569.061H197.773C197.965 569.061 198.129 569.102 198.266 569.184C198.402 569.266 198.471 569.411 198.471 569.621C198.471 569.831 198.402 569.977 198.266 570.059C198.129 570.141 197.965 570.182 197.773 570.182H192.865C192.337 571.038 191.785 571.863 191.211 572.656C191.539 572.419 191.899 572.21 192.291 572.027C192.692 571.836 193.098 571.74 193.508 571.74C194.629 571.74 195.294 572.296 195.504 573.408C195.632 573.372 195.823 573.317 196.078 573.244C196.333 573.171 196.616 573.094 196.926 573.012C197.236 572.921 197.546 572.834 197.855 572.752C198.165 572.67 198.439 572.606 198.676 572.561C198.922 572.506 199.095 572.479 199.195 572.479C199.396 572.479 199.537 572.538 199.619 572.656C199.71 572.766 199.756 572.911 199.756 573.094C199.756 573.267 199.701 573.399 199.592 573.49C199.482 573.572 199.35 573.632 199.195 573.668C199.049 573.704 198.913 573.736 198.785 573.764C198.421 573.846 198.056 573.928 197.691 574.01C197.336 574.083 196.976 574.165 196.611 574.256C196.438 574.292 196.265 574.338 196.092 574.393C195.928 574.447 195.759 574.497 195.586 574.543V576.43C195.586 576.63 195.545 576.803 195.463 576.949C195.381 577.086 195.226 577.154 194.998 577.154C194.779 577.154 194.629 577.086 194.547 576.949C194.465 576.803 194.424 576.63 194.424 576.43V574.953C194.205 575.044 193.941 575.163 193.631 575.309C193.321 575.454 193.011 575.628 192.701 575.828C192.4 576.029 192.15 576.252 191.949 576.498C191.749 576.744 191.648 577.013 191.648 577.305C191.648 577.56 191.73 577.76 191.895 577.906C192.068 578.052 192.282 578.166 192.537 578.248C192.801 578.321 193.079 578.371 193.371 578.398C193.672 578.417 193.954 578.426 194.219 578.426C194.483 578.426 194.697 578.426 194.861 578.426C195.144 578.426 195.426 578.426 195.709 578.426C196.001 578.417 196.288 578.408 196.57 578.398C196.807 578.38 197.049 578.357 197.295 578.33C197.541 578.303 197.783 578.289 198.02 578.289C198.43 578.289 198.635 578.485 198.635 578.877C198.635 579.087 198.553 579.228 198.389 579.301C198.225 579.383 198.056 579.438 197.883 579.465C197.409 579.538 196.917 579.574 196.406 579.574C195.905 579.583 195.413 579.588 194.93 579.588ZM205.307 580.039C204.896 580.039 204.691 579.843 204.691 579.451C204.691 579.251 204.773 579.105 204.938 579.014C205.111 578.923 205.329 578.845 205.594 578.781C205.867 578.708 206.154 578.622 206.455 578.521C206.765 578.421 207.057 578.266 207.33 578.057C207.613 577.838 207.845 577.537 208.027 577.154C208.219 576.771 208.328 576.261 208.355 575.623C208.073 575.614 207.822 575.591 207.604 575.555C207.385 575.509 207.212 575.409 207.084 575.254C206.965 575.09 206.906 574.835 206.906 574.488V568.924C206.906 568.158 207.289 567.775 208.055 567.775H212.43C213.195 567.775 213.578 568.158 213.578 568.924V574.488C213.578 575.254 213.195 575.637 212.43 575.637L211.65 575.623V578.275C211.65 578.449 211.719 578.567 211.855 578.631C212.001 578.686 212.147 578.713 212.293 578.713C212.393 578.713 212.53 578.708 212.703 578.699C212.876 578.681 213.004 578.649 213.086 578.604C213.177 578.549 213.232 578.449 213.25 578.303C213.277 578.148 213.3 577.988 213.318 577.824C213.337 577.66 213.382 577.519 213.455 577.4C213.537 577.273 213.678 577.209 213.879 577.209C214.262 577.209 214.453 577.405 214.453 577.797C214.453 578.316 214.398 578.722 214.289 579.014C214.18 579.305 213.984 579.51 213.701 579.629C213.419 579.747 213.008 579.807 212.471 579.807C212.17 579.807 211.869 579.798 211.568 579.779C211.277 579.77 211.031 579.688 210.83 579.533C210.639 579.387 210.543 579.118 210.543 578.727V575.623H209.449C209.367 576.826 209.021 577.797 208.41 578.535C207.799 579.273 206.888 579.757 205.676 579.984C205.621 579.993 205.557 580.003 205.484 580.012C205.421 580.03 205.361 580.039 205.307 580.039ZM202.121 578.439C201.921 578.439 201.775 578.385 201.684 578.275C201.602 578.157 201.561 578.002 201.561 577.811C201.561 577.646 201.624 577.519 201.752 577.428C201.88 577.327 202.03 577.25 202.203 577.195C202.376 577.141 202.522 577.1 202.641 577.072L203.652 576.812V573.148H202.449C202.276 573.148 202.13 573.112 202.012 573.039C201.893 572.957 201.834 572.816 201.834 572.615C201.834 572.415 201.889 572.273 201.998 572.191C202.117 572.109 202.267 572.068 202.449 572.068H203.652V569.129H202.312C202.13 569.129 201.971 569.092 201.834 569.02C201.706 568.938 201.643 568.796 201.643 568.596C201.643 568.386 201.706 568.245 201.834 568.172C201.962 568.09 202.121 568.049 202.312 568.049H205.908C206.09 568.049 206.245 568.09 206.373 568.172C206.501 568.245 206.564 568.386 206.564 568.596C206.564 568.796 206.501 568.938 206.373 569.02C206.245 569.092 206.09 569.129 205.908 569.129H204.76V572.068H205.771C205.954 572.068 206.1 572.109 206.209 572.191C206.327 572.273 206.387 572.415 206.387 572.615C206.387 572.816 206.327 572.957 206.209 573.039C206.1 573.112 205.954 573.148 205.771 573.148H204.76V576.498C204.988 576.452 205.22 576.375 205.457 576.266C205.694 576.156 205.926 576.102 206.154 576.102C206.337 576.102 206.46 576.156 206.523 576.266C206.596 576.375 206.633 576.507 206.633 576.662C206.633 576.79 206.592 576.895 206.51 576.977C206.437 577.059 206.346 577.122 206.236 577.168C206.127 577.214 205.931 577.286 205.648 577.387C205.366 577.487 205.042 577.601 204.678 577.729C204.322 577.847 203.967 577.961 203.611 578.07C203.256 578.18 202.941 578.271 202.668 578.344C202.395 578.408 202.212 578.439 202.121 578.439ZM208 570.059H212.457V569.266C212.457 569.12 212.411 569.006 212.32 568.924C212.238 568.833 212.124 568.787 211.979 568.787H208.479C208.333 568.787 208.214 568.833 208.123 568.924C208.041 569.006 208 569.12 208 569.266V570.059ZM208 572.314H212.457V570.988H208V572.314ZM208.479 574.652H211.979C212.124 574.652 212.238 574.611 212.32 574.529C212.411 574.438 212.457 574.32 212.457 574.174V573.244H208V574.174C208 574.32 208.041 574.438 208.123 574.529C208.214 574.611 208.333 574.652 208.479 574.652ZM216.422 571.658C216.194 571.658 216.035 571.59 215.943 571.453C215.861 571.316 215.82 571.148 215.82 570.947V569.922C215.82 568.983 216.29 568.514 217.229 568.514H221.275C221.275 568.322 221.271 568.131 221.262 567.939C221.262 567.739 221.303 567.575 221.385 567.447C221.476 567.311 221.654 567.242 221.918 567.242C222.191 567.242 222.369 567.306 222.451 567.434C222.542 567.561 222.583 567.725 222.574 567.926C222.574 568.117 222.574 568.313 222.574 568.514H226.689C227.173 568.514 227.542 568.628 227.797 568.855C228.052 569.074 228.18 569.434 228.18 569.936V570.947C228.18 571.148 228.134 571.316 228.043 571.453C227.961 571.59 227.806 571.658 227.578 571.658C227.323 571.658 227.154 571.59 227.072 571.453C226.999 571.307 226.963 571.13 226.963 570.92C226.972 570.71 226.981 570.501 226.99 570.291C226.999 570.081 226.967 569.908 226.895 569.771C226.831 569.626 226.676 569.553 226.43 569.553H217.57C217.324 569.553 217.165 569.626 217.092 569.771C217.028 569.908 217.001 570.081 217.01 570.291C217.019 570.501 217.028 570.71 217.037 570.92C217.046 571.13 217.01 571.307 216.928 571.453C216.855 571.59 216.686 571.658 216.422 571.658ZM216.121 580.08C215.747 580.08 215.561 579.884 215.561 579.492C215.561 579.283 215.624 579.137 215.752 579.055C215.889 578.982 216.048 578.932 216.23 578.904C216.686 578.85 217.151 578.768 217.625 578.658C218.099 578.549 218.55 578.398 218.979 578.207C219.416 578.016 219.808 577.77 220.154 577.469C220.51 577.159 220.792 576.776 221.002 576.32H216.463C216.29 576.32 216.139 576.284 216.012 576.211C215.884 576.138 215.82 576.001 215.82 575.801C215.82 575.6 215.884 575.468 216.012 575.404C216.139 575.331 216.29 575.295 216.463 575.295H221.234L221.344 574.146H218.021C217.857 574.146 217.725 574.11 217.625 574.037C217.525 573.955 217.475 573.827 217.475 573.654C217.475 573.472 217.525 573.344 217.625 573.271C217.725 573.199 217.857 573.162 218.021 573.162H221.371L221.385 572.055H217.857C217.693 572.055 217.557 572.018 217.447 571.945C217.347 571.863 217.297 571.736 217.297 571.562C217.297 571.38 217.347 571.253 217.447 571.18C217.557 571.107 217.693 571.07 217.857 571.07H221.385C221.385 570.915 221.385 570.742 221.385 570.551C221.385 570.35 221.421 570.182 221.494 570.045C221.567 569.899 221.717 569.826 221.945 569.826C222.164 569.826 222.31 569.899 222.383 570.045C222.456 570.182 222.492 570.346 222.492 570.537C222.492 570.628 222.488 570.719 222.479 570.811C222.479 570.893 222.479 570.979 222.479 571.07H226.143C226.307 571.07 226.439 571.107 226.539 571.18C226.648 571.253 226.703 571.38 226.703 571.562C226.703 571.736 226.648 571.863 226.539 571.945C226.439 572.018 226.307 572.055 226.143 572.055H222.465C222.465 572.173 222.46 572.287 222.451 572.396C222.451 572.506 222.451 572.62 222.451 572.738V573.162H225.965C226.129 573.162 226.261 573.199 226.361 573.271C226.471 573.344 226.525 573.472 226.525 573.654C226.525 573.827 226.471 573.955 226.361 574.037C226.261 574.11 226.129 574.146 225.965 574.146H222.41C222.401 574.338 222.392 574.529 222.383 574.721C222.374 574.912 222.351 575.104 222.314 575.295H227.551C227.733 575.295 227.883 575.331 228.002 575.404C228.12 575.468 228.18 575.6 228.18 575.801C228.18 576.001 228.12 576.138 228.002 576.211C227.883 576.284 227.733 576.32 227.551 576.32H222.711C223.085 576.822 223.554 577.245 224.119 577.592C224.693 577.929 225.304 578.193 225.951 578.385C226.607 578.576 227.232 578.704 227.824 578.768C228.007 578.786 228.152 578.836 228.262 578.918C228.38 578.991 228.439 579.128 228.439 579.328C228.439 579.738 228.239 579.943 227.838 579.943C227.337 579.943 226.794 579.861 226.211 579.697C225.637 579.533 225.067 579.305 224.502 579.014C223.946 578.731 223.44 578.398 222.984 578.016C222.529 577.633 222.178 577.218 221.932 576.771C221.713 577.3 221.408 577.756 221.016 578.139C220.633 578.521 220.195 578.84 219.703 579.096C219.22 579.36 218.705 579.565 218.158 579.711C217.62 579.866 217.083 579.975 216.545 580.039C216.481 580.048 216.413 580.057 216.34 580.066C216.267 580.076 216.194 580.08 216.121 580.08ZM232.035 579.369C231.844 579.369 231.698 579.319 231.598 579.219C231.497 579.128 231.42 578.995 231.365 578.822C231.329 578.695 231.288 578.485 231.242 578.193C231.206 577.902 231.169 577.569 231.133 577.195C231.105 576.812 231.078 576.43 231.051 576.047C231.023 575.664 231.001 575.318 230.982 575.008C230.973 574.689 230.969 574.447 230.969 574.283C230.969 573.399 231.005 572.51 231.078 571.617C231.151 570.715 231.279 569.835 231.461 568.979C231.507 568.769 231.584 568.559 231.693 568.35C231.803 568.131 231.99 568.021 232.254 568.021C232.646 568.021 232.842 568.204 232.842 568.568C232.842 568.687 232.828 568.81 232.801 568.938C232.783 569.056 232.76 569.174 232.732 569.293C232.559 570.068 232.441 570.847 232.377 571.631C232.322 572.406 232.295 573.185 232.295 573.969C232.295 574.999 232.35 576.029 232.459 577.059C232.477 577.286 232.505 577.514 232.541 577.742C232.577 577.97 232.609 578.202 232.637 578.439C232.646 578.485 232.65 578.54 232.65 578.604C232.66 578.658 232.664 578.708 232.664 578.754C232.664 579.164 232.454 579.369 232.035 579.369ZM235.07 570.906C234.742 570.906 234.578 570.729 234.578 570.373C234.578 570.2 234.633 570.063 234.742 569.963C234.852 569.854 234.984 569.771 235.139 569.717C235.294 569.662 235.439 569.621 235.576 569.594C236.278 569.457 236.993 569.357 237.723 569.293C238.452 569.22 239.176 569.184 239.896 569.184C240.042 569.184 240.225 569.197 240.443 569.225C240.662 569.243 240.858 569.298 241.031 569.389C241.204 569.48 241.291 569.63 241.291 569.84C241.291 570.086 241.223 570.259 241.086 570.359C240.949 570.46 240.767 570.51 240.539 570.51C240.339 570.51 240.138 570.501 239.938 570.482C239.737 570.464 239.532 570.455 239.322 570.455C238.611 570.455 237.96 570.492 237.367 570.564C236.775 570.637 236.132 570.733 235.439 570.852C235.385 570.861 235.321 570.874 235.248 570.893C235.184 570.902 235.125 570.906 235.07 570.906ZM239.391 578.48C238.971 578.48 238.525 578.471 238.051 578.453C237.577 578.435 237.112 578.38 236.656 578.289C236.21 578.198 235.804 578.052 235.439 577.852C235.075 577.651 234.783 577.368 234.564 577.004C234.346 576.639 234.236 576.17 234.236 575.596C234.236 575.395 234.255 575.176 234.291 574.939C234.327 574.693 234.41 574.484 234.537 574.311C234.665 574.137 234.861 574.051 235.125 574.051C235.289 574.051 235.421 574.087 235.521 574.16C235.622 574.233 235.672 574.361 235.672 574.543C235.672 574.716 235.635 574.898 235.562 575.09C235.499 575.272 235.467 575.468 235.467 575.678C235.467 575.979 235.553 576.225 235.727 576.416C235.909 576.607 236.141 576.758 236.424 576.867C236.715 576.977 237.021 577.054 237.34 577.1C237.668 577.145 237.978 577.177 238.27 577.195C238.57 577.204 238.821 577.209 239.021 577.209C239.359 577.209 239.691 577.195 240.02 577.168C240.348 577.132 240.676 577.113 241.004 577.113C241.414 577.113 241.619 577.314 241.619 577.715C241.619 578.016 241.469 578.221 241.168 578.33C241.049 578.376 240.872 578.412 240.635 578.439C240.407 578.458 240.174 578.471 239.938 578.48C239.71 578.48 239.527 578.48 239.391 578.48ZM247.443 579.916C247.243 579.916 247.074 579.87 246.938 579.779C246.801 579.697 246.732 579.542 246.732 579.314C246.732 579.096 246.819 578.95 246.992 578.877C247.165 578.804 247.339 578.758 247.512 578.74C248.086 578.676 248.615 578.562 249.098 578.398C249.59 578.234 249.991 577.97 250.301 577.605C250.611 577.232 250.779 576.712 250.807 576.047C250.57 576.357 250.296 576.603 249.986 576.785C249.676 576.958 249.321 577.045 248.92 577.045C248.391 577.045 247.936 576.913 247.553 576.648C247.179 576.384 246.892 576.038 246.691 575.609C246.491 575.172 246.391 574.707 246.391 574.215C246.391 573.677 246.5 573.185 246.719 572.738C246.947 572.292 247.266 571.936 247.676 571.672C248.095 571.398 248.583 571.262 249.139 571.262C249.494 571.262 249.813 571.348 250.096 571.521C250.387 571.686 250.647 571.9 250.875 572.164V570.264H244.545C244.344 570.264 244.171 570.223 244.025 570.141C243.889 570.059 243.82 569.904 243.82 569.676C243.82 569.448 243.889 569.293 244.025 569.211C244.171 569.129 244.344 569.088 244.545 569.088H250.875C250.875 568.951 250.866 568.787 250.848 568.596C250.839 568.404 250.843 568.222 250.861 568.049C250.88 567.867 250.934 567.716 251.025 567.598C251.117 567.47 251.262 567.406 251.463 567.406C251.663 567.406 251.809 567.47 251.9 567.598C251.992 567.716 252.046 567.867 252.064 568.049C252.083 568.222 252.083 568.404 252.064 568.596C252.055 568.787 252.051 568.951 252.051 569.088H255.455C255.665 569.088 255.833 569.129 255.961 569.211C256.098 569.293 256.166 569.448 256.166 569.676C256.166 569.904 256.098 570.059 255.961 570.141C255.833 570.223 255.665 570.264 255.455 570.264H252.051V575.104C252.051 575.523 252.019 575.992 251.955 576.512C251.891 577.022 251.764 577.464 251.572 577.838C251.399 578.175 251.158 578.476 250.848 578.74C250.538 578.995 250.187 579.21 249.795 579.383C249.403 579.565 249.002 579.697 248.592 579.779C248.191 579.87 247.808 579.916 247.443 579.916ZM249.18 575.951C249.772 575.951 250.191 575.783 250.438 575.445C250.693 575.108 250.82 574.661 250.82 574.105C250.82 573.568 250.702 573.13 250.465 572.793C250.237 572.447 249.831 572.273 249.248 572.273C248.701 572.273 248.273 572.46 247.963 572.834C247.662 573.208 247.512 573.654 247.512 574.174C247.512 574.73 247.644 575.167 247.908 575.486C248.173 575.796 248.596 575.951 249.18 575.951ZM264.041 579.574C263.676 579.574 263.271 579.538 262.824 579.465C262.387 579.401 261.967 579.283 261.566 579.109C261.174 578.936 260.851 578.699 260.596 578.398C260.34 578.089 260.213 577.697 260.213 577.223C260.213 576.822 260.318 576.484 260.527 576.211C260.737 575.928 261.006 575.714 261.334 575.568C261.671 575.423 262.022 575.35 262.387 575.35C262.988 575.35 263.499 575.482 263.918 575.746C264.337 576.01 264.684 576.361 264.957 576.799C265.24 577.236 265.463 577.715 265.627 578.234C266.219 578.025 266.707 577.724 267.09 577.332C267.473 576.94 267.664 576.411 267.664 575.746C267.664 575.09 267.509 574.584 267.199 574.229C266.898 573.864 266.497 573.613 265.996 573.477C265.504 573.331 264.971 573.258 264.396 573.258C263.704 573.258 263.016 573.363 262.332 573.572C261.658 573.773 261.051 574.101 260.514 574.557C260.404 574.648 260.245 574.785 260.035 574.967C259.835 575.149 259.625 575.318 259.406 575.473C259.197 575.628 259.019 575.705 258.873 575.705C258.463 575.705 258.258 575.5 258.258 575.09C258.258 574.944 258.312 574.812 258.422 574.693C258.54 574.566 258.65 574.461 258.75 574.379C259.753 573.595 260.755 572.816 261.758 572.041C262.77 571.266 263.772 570.482 264.766 569.689C264.793 569.662 264.866 569.607 264.984 569.525C265.112 569.443 265.176 569.37 265.176 569.307C265.176 569.252 265.139 569.225 265.066 569.225H260.623C260.423 569.225 260.249 569.184 260.104 569.102C259.958 569.01 259.885 568.851 259.885 568.623C259.885 568.395 259.958 568.24 260.104 568.158C260.249 568.067 260.423 568.021 260.623 568.021H266.174C266.429 568.021 266.666 568.072 266.885 568.172C267.104 568.263 267.213 568.459 267.213 568.76C267.213 568.851 267.104 569.01 266.885 569.238C266.675 569.457 266.402 569.712 266.064 570.004C265.727 570.296 265.367 570.596 264.984 570.906C264.602 571.207 264.237 571.49 263.891 571.754C263.544 572.018 263.257 572.237 263.029 572.41C262.801 572.574 262.674 572.665 262.646 572.684C262.993 572.529 263.348 572.401 263.713 572.301C264.077 572.201 264.447 572.15 264.82 572.15C265.549 572.15 266.229 572.283 266.857 572.547C267.486 572.802 267.992 573.194 268.375 573.723C268.767 574.251 268.963 574.912 268.963 575.705C268.963 576.389 268.822 576.977 268.539 577.469C268.257 577.952 267.878 578.353 267.404 578.672C266.93 578.982 266.402 579.21 265.818 579.355C265.235 579.501 264.643 579.574 264.041 579.574ZM263.645 578.494C263.927 578.494 264.205 578.48 264.479 578.453C264.378 578.089 264.237 577.756 264.055 577.455C263.872 577.145 263.64 576.899 263.357 576.717C263.075 576.525 262.724 576.43 262.305 576.43C262.031 576.43 261.803 576.489 261.621 576.607C261.448 576.717 261.361 576.922 261.361 577.223C261.361 577.451 261.443 577.646 261.607 577.811C261.781 577.975 261.99 578.107 262.236 578.207C262.482 578.307 262.733 578.38 262.988 578.426C263.253 578.471 263.471 578.494 263.645 578.494Z" fill="#111111"/>
<line x1="428.5" y1="988.5" x2="361.5" y2="988.5" stroke="#111111" stroke-width="3" stroke-linecap="round"/>
<line x1="68.5" y1="86.5" x2="1.5" y2="86.5" stroke="#111111" stroke-width="3" stroke-linecap="round"/>
<circle cx="218" cy="799" r="6" transform="rotate(180 218 799)" fill="#111111"/>
<circle cx="170" cy="801" r="5" transform="rotate(180 170 801)" fill="#111111"/>
<circle cx="26" cy="724" r="5" transform="rotate(180 26 724)" fill="#111111"/>
<circle cx="57.5" cy="824.5" r="5.5" transform="rotate(180 57.5 824.5)" fill="#111111"/>
<circle cx="18.5" cy="905.5" r="6.5" transform="rotate(180 18.5 905.5)" fill="#111111"/>
<circle cx="128.5" cy="952.5" r="4.5" transform="rotate(180 128.5 952.5)" fill="#111111"/>
<circle cx="49.5" cy="975.5" r="5.5" transform="rotate(180 49.5 975.5)" fill="#111111"/>
<circle cx="241.5" cy="997.5" r="6.5" transform="rotate(180 241.5 997.5)" fill="#111111"/>
<circle cx="8" cy="750" r="5" transform="rotate(180 8 750)" fill="#111111"/>
<circle cx="212.147" cy="839.005" r="2.95156" transform="rotate(180 212.147 839.005)" fill="#111111"/>
<circle cx="249.5" cy="876.5" r="4.5" transform="rotate(180 249.5 876.5)" fill="#111111"/>
<circle cx="224.389" cy="902.766" r="2.95156" transform="rotate(180 224.389 902.766)" fill="#111111"/>
<circle cx="342" cy="993" r="4" transform="rotate(180 342 993)" fill="#111111"/>
<circle cx="304" cy="994" r="5" transform="rotate(180 304 994)" fill="#111111"/>
<circle cx="149" cy="865" r="5" transform="rotate(180 149 865)" fill="#111111"/>
<line x1="-55.0177" y1="1002.84" x2="17.6209" y2="905.799" stroke="#111111" stroke-width="3" stroke-linecap="round"/>
<line x1="-53.0834" y1="1002.53" x2="50.8422" y2="974.892" stroke="#111111" stroke-width="3" stroke-linecap="round"/>
<path d="M18.9388 905.458L-116.878 745.687" stroke="#111111" stroke-width="3" stroke-linecap="round"/>
<path d="M-116.651 745.828L7.50622 749.967" stroke="#111111" stroke-width="3" stroke-linecap="round"/>
<path d="M8.16567 751.065L19.5407 904.879" stroke="#111111" stroke-width="3" stroke-linecap="round"/>
<line x1="20.0946" y1="905.523" x2="212.485" y2="1020.94" stroke="#111111" stroke-width="3" stroke-linecap="round"/>
<line x1="149.364" y1="866.899" x2="212.82" y2="1022.04" stroke="#111111" stroke-width="3" stroke-linecap="round"/>
<line x1="1.5" y1="-1.5" x2="99.0933" y2="-1.5" transform="matrix(-0.711832 0.70235 -0.729082 -0.684426 219.615 795.427)" stroke="#111111" stroke-width="3" stroke-linecap="round"/>
<line x1="248.989" y1="876.583" x2="212.818" y2="1021.91" stroke="#111111" stroke-width="3" stroke-linecap="round"/>
<line x1="1.5" y1="-1.5" x2="39.7857" y2="-1.5" transform="matrix(-0.189471 0.981886 -0.9844 -0.175946 218.412 797.165)" stroke="#111111" stroke-width="3" stroke-linecap="round"/>
<line x1="1.5" y1="-1.5" x2="67.6991" y2="-1.5" transform="matrix(-0.904342 0.426808 -0.453997 -0.891003 211.792 836.544)" stroke="#111111" stroke-width="3" stroke-linecap="round"/>
<line x1="1.5" y1="-1.5" x2="51.4921" y2="-1.5" transform="matrix(-0.692658 -0.721266 0.74718 -0.664621 248.498 874.765)" stroke="#111111" stroke-width="3" stroke-linecap="round"/>
<line x1="1.5" y1="-1.5" x2="131.05" y2="-1.5" transform="matrix(-0.426723 -0.904382 0.916312 -0.400464 306.264 994.642)" stroke="#111111" stroke-width="3" stroke-linecap="round"/>
<line x1="341.242" y1="993.107" x2="266.107" y2="1087.76" stroke="#111111" stroke-width="3" stroke-linecap="round"/>
<line x1="302.86" y1="994.939" x2="266.939" y2="1088.14" stroke="#111111" stroke-width="3" stroke-linecap="round"/>
<line x1="240.849" y1="997.116" x2="213.116" y2="1021.15" stroke="#111111" stroke-width="3" stroke-linecap="round"/>
<line x1="249.537" y1="876.982" x2="241.221" y2="996.724" stroke="#111111" stroke-width="3" stroke-linecap="round"/>
<line x1="240.848" y1="997.041" x2="266.041" y2="1087.15" stroke="#111111" stroke-width="3" stroke-linecap="round"/>
<line x1="342.537" y1="992.536" x2="304.536" y2="993.463" stroke="#111111" stroke-width="3" stroke-linecap="round"/>
<line x1="218.303" y1="798.087" x2="10.1304" y2="750.795" stroke="#111111" stroke-width="3" stroke-linecap="round"/>
<line x1="147.011" y1="864.737" x2="59.691" y2="824.634" stroke="#111111" stroke-width="3" stroke-linecap="round"/>
<line x1="1.5" y1="-1.5" x2="89.8215" y2="-1.5" transform="matrix(0.434881 -0.900488 0.912835 0.408329 20.4434 906.038)" stroke="#111111" stroke-width="3" stroke-linecap="round"/>
<line x1="249.361" y1="875.346" x2="150.346" y2="865.639" stroke="#111111" stroke-width="3" stroke-linecap="round"/>
<line x1="224.086" y1="902.629" x2="148.673" y2="865.012" stroke="#111111" stroke-width="3" stroke-linecap="round"/>
<line x1="248.78" y1="877.477" x2="224.672" y2="902.636" stroke="#111111" stroke-width="3" stroke-linecap="round"/>
<line x1="213.643" y1="1022.37" x2="224.501" y2="904.088" stroke="#111111" stroke-width="3" stroke-linecap="round"/>
<line x1="342.891" y1="992.773" x2="249.475" y2="876.875" stroke="#111111" stroke-width="3" stroke-linecap="round"/>
<line x1="268.386" y1="1088.62" x2="251.623" y2="877.614" stroke="#111111" stroke-width="3" stroke-linecap="round"/>
<line x1="250.054" y1="875.155" x2="219.372" y2="797.373" stroke="#111111" stroke-width="3" stroke-linecap="round"/>
<line x1="7.13113" y1="748.996" x2="-17.0037" y2="668.869" stroke="#111111" stroke-width="3" stroke-linecap="round"/>
<line x1="8.67601" y1="749.904" x2="25.5675" y2="726.837" stroke="#111111" stroke-width="3" stroke-linecap="round"/>
<line x1="-18.8896" y1="669.215" x2="26.0743" y2="724.402" stroke="#111111" stroke-width="3" stroke-linecap="round"/>
<line x1="27.7924" y1="725.64" x2="219.226" y2="798.023" stroke="#111111" stroke-width="3" stroke-linecap="round"/>
<line x1="-19.905" y1="826.081" x2="7.08141" y2="750.905" stroke="#111111" stroke-width="3" stroke-linecap="round"/>
<line x1="17.2425" y1="904.164" x2="-19.7149" y2="825.997" stroke="#111111" stroke-width="3" stroke-linecap="round"/>
<line x1="1.5" y1="-1.5" x2="87.043" y2="-1.5" transform="matrix(0.224264 -0.974528 0.978029 0.208469 129.356 953.525)" stroke="#111111" stroke-width="3" stroke-linecap="round"/>
<line x1="212.896" y1="1018.27" x2="129.09" y2="953.626" stroke="#111111" stroke-width="3" stroke-linecap="round"/>
<line x1="128.025" y1="952.775" x2="20.7749" y2="905.975" stroke="#111111" stroke-width="3" stroke-linecap="round"/>
<line x1="148.003" y1="865.873" x2="19.8727" y2="904.997" stroke="#111111" stroke-width="3" stroke-linecap="round"/>
<line x1="50.687" y1="975.222" x2="19.7091" y2="908.028" stroke="#111111" stroke-width="3" stroke-linecap="round"/>
<line x1="213.164" y1="1019.06" x2="52.0354" y2="976.087" stroke="#111111" stroke-width="3" stroke-linecap="round"/>
<line x1="1.5" y1="-1.5" x2="66.3899" y2="-1.5" transform="matrix(0.983825 0.179134 -0.192886 0.981221 -48.7554 894.455)" stroke="#111111" stroke-width="3" stroke-linecap="round"/>
<line x1="-43.9978" y1="725.299" x2="7.29922" y2="749.998" stroke="#111111" stroke-width="3" stroke-linecap="round"/>
<line x1="219.067" y1="796.568" x2="-16.3888" y2="670.031" stroke="#111111" stroke-width="3" stroke-linecap="round"/>
<line x1="1.5" y1="-1.5" x2="65.9809" y2="-1.5" transform="matrix(0.329929 -0.944006 0.951391 0.307986 149.814 866.079)" stroke="#111111" stroke-width="3" stroke-linecap="round"/>
<line x1="8.87671" y1="751.011" x2="170.488" y2="801.079" stroke="#111111" stroke-width="3" stroke-linecap="round"/>
<line x1="8.10912" y1="749.773" x2="149.773" y2="863.891" stroke="#111111" stroke-width="3" stroke-linecap="round"/>
<line x1="172.133" y1="801.342" x2="219.484" y2="797.58" stroke="#111111" stroke-width="3" stroke-linecap="round"/>
<circle cx="213" cy="273" r="6" fill="#111111"/>
<circle cx="261" cy="271" r="5" fill="#111111"/>
<circle cx="405" cy="348" r="5" fill="#111111"/>
<circle cx="373.5" cy="247.5" r="5.5" fill="#111111"/>
<circle cx="411.76" cy="166.542" r="2.95156" fill="#111111"/>
<circle cx="303.5" cy="118.5" r="4.5" fill="#111111"/>
<circle cx="381.5" cy="96.5" r="5.5" fill="#111111"/>
<circle cx="218" cy="52" r="6" fill="#111111"/>
<circle cx="221" cy="29" r="4" fill="#111111"/>
<circle cx="189.5" cy="74.5" r="6.5" fill="#111111"/>
<circle cx="423.193" cy="321.744" r="2.95156" fill="#111111"/>
<circle cx="218.853" cy="232.995" r="2.95156" fill="#111111"/>
<circle cx="181.5" cy="195.5" r="4.5" fill="#111111"/>
<circle cx="206.611" cy="169.234" r="2.95156" fill="#111111"/>
<circle cx="89" cy="79" r="4" fill="#111111"/>
<circle cx="127" cy="78" r="5" fill="#111111"/>
<circle cx="282" cy="205" r="5" fill="#111111"/>
<line x1="486.018" y1="69.1649" x2="413.379" y2="166.201" stroke="#111111" stroke-width="3" stroke-linecap="round"/>
<line x1="484.083" y1="69.4684" x2="380.158" y2="97.1082" stroke="#111111" stroke-width="3" stroke-linecap="round"/>
<path d="M412.061 166.542L547.878 326.313" stroke="#111111" stroke-width="3" stroke-linecap="round"/>
<path d="M547.651 326.172L423.494 322.033" stroke="#111111" stroke-width="3" stroke-linecap="round"/>
<path d="M422.834 320.935L411.459 167.121" stroke="#111111" stroke-width="3" stroke-linecap="round"/>
<path d="M424.265 320.421L282.22 207.534" stroke="#111111" stroke-width="3" stroke-linecap="round"/>
<path d="M284.924 206.145L413.259 169.091" stroke="#111111" stroke-width="3" stroke-linecap="round"/>
<line x1="410.905" y1="166.477" x2="218.515" y2="51.0579" stroke="#111111" stroke-width="3" stroke-linecap="round"/>
<line x1="281.636" y1="205.101" x2="218.18" y2="49.9562" stroke="#111111" stroke-width="3" stroke-linecap="round"/>
<line x1="1.5" y1="-1.5" x2="99.0933" y2="-1.5" transform="matrix(0.711832 -0.70235 0.729082 0.684426 211.385 276.573)" stroke="#111111" stroke-width="3" stroke-linecap="round"/>
<line x1="182.011" y1="195.417" x2="218.182" y2="50.0933" stroke="#111111" stroke-width="3" stroke-linecap="round"/>
<line x1="1.5" y1="-1.5" x2="39.7857" y2="-1.5" transform="matrix(0.189471 -0.981886 0.9844 0.175946 212.588 274.835)" stroke="#111111" stroke-width="3" stroke-linecap="round"/>
<line x1="1.5" y1="-1.5" x2="67.6991" y2="-1.5" transform="matrix(0.904342 -0.426808 0.453997 0.891003 219.208 235.456)" stroke="#111111" stroke-width="3" stroke-linecap="round"/>
<line x1="1.5" y1="-1.5" x2="51.4921" y2="-1.5" transform="matrix(0.692658 0.721266 -0.74718 0.664621 182.502 197.235)" stroke="#111111" stroke-width="3" stroke-linecap="round"/>
<line x1="1.5" y1="-1.5" x2="131.05" y2="-1.5" transform="matrix(0.426723 0.904382 -0.916312 0.400464 124.736 77.3584)" stroke="#111111" stroke-width="3" stroke-linecap="round"/>
<line x1="89.7578" y1="78.8926" x2="164.893" y2="-15.7578" stroke="#111111" stroke-width="3" stroke-linecap="round"/>
<line x1="128.14" y1="77.0609" x2="164.061" y2="-16.1398" stroke="#111111" stroke-width="3" stroke-linecap="round"/>
<line x1="217.113" y1="49.2248" x2="163.774" y2="-16.8907" stroke="#111111" stroke-width="3" stroke-linecap="round"/>
<line x1="218.501" y1="49.4705" x2="221.315" y2="28.2893" stroke="#111111" stroke-width="3" stroke-linecap="round"/>
<line x1="190.151" y1="74.8841" x2="217.884" y2="50.8489" stroke="#111111" stroke-width="3" stroke-linecap="round"/>
<line x1="181.463" y1="195.018" x2="189.779" y2="75.2762" stroke="#111111" stroke-width="3" stroke-linecap="round"/>
<line x1="190.152" y1="74.9593" x2="164.959" y2="-15.1515" stroke="#111111" stroke-width="3" stroke-linecap="round"/>
<line x1="220.527" y1="26.9871" x2="165.265" y2="-15.8954" stroke="#111111" stroke-width="3" stroke-linecap="round"/>
<line x1="485.708" y1="68.8847" x2="221.251" y2="27.7129" stroke="#111111" stroke-width="3" stroke-linecap="round"/>
<line x1="88.463" y1="79.4639" x2="126.464" y2="78.537" stroke="#111111" stroke-width="3" stroke-linecap="round"/>
<line x1="212.705" y1="273.925" x2="422.882" y2="323.197" stroke="#111111" stroke-width="3" stroke-linecap="round"/>
<line x1="283.989" y1="207.263" x2="371.309" y2="247.366" stroke="#111111" stroke-width="3" stroke-linecap="round"/>
<line x1="1.5" y1="-1.5" x2="89.8215" y2="-1.5" transform="matrix(-0.434881 0.900488 -0.912835 -0.408329 410.557 165.962)" stroke="#111111" stroke-width="3" stroke-linecap="round"/>
<line x1="373.529" y1="248.587" x2="424.391" y2="322.915" stroke="#111111" stroke-width="3" stroke-linecap="round"/>
<line x1="181.612" y1="196.621" x2="280.408" y2="204.309" stroke="#111111" stroke-width="3" stroke-linecap="round"/>
<line x1="206.914" y1="169.371" x2="282.327" y2="206.988" stroke="#111111" stroke-width="3" stroke-linecap="round"/>
<line x1="182.22" y1="194.523" x2="206.328" y2="169.364" stroke="#111111" stroke-width="3" stroke-linecap="round"/>
<line x1="217.357" y1="49.6308" x2="206.499" y2="167.912" stroke="#111111" stroke-width="3" stroke-linecap="round"/>
<line x1="88.1092" y1="79.2266" x2="181.525" y2="195.125" stroke="#111111" stroke-width="3" stroke-linecap="round"/>
<line x1="162.634" y1="-16.6475" x2="182.651" y2="195.6" stroke="#111111" stroke-width="3" stroke-linecap="round"/>
<line x1="180.946" y1="196.845" x2="211.628" y2="274.627" stroke="#111111" stroke-width="3" stroke-linecap="round"/>
<line x1="424.457" y1="323.912" x2="448.01" y2="403.135" stroke="#111111" stroke-width="3" stroke-linecap="round"/>
<line x1="1.5" y1="-1.5" x2="29.5219" y2="-1.5" transform="matrix(-0.620699 0.784049 -0.80643 -0.59133 422.591 321.165)" stroke="#111111" stroke-width="3" stroke-linecap="round"/>
<line x1="449.89" y1="402.785" x2="404.926" y2="347.598" stroke="#111111" stroke-width="3" stroke-linecap="round"/>
<line x1="403.208" y1="346.36" x2="211.774" y2="273.977" stroke="#111111" stroke-width="3" stroke-linecap="round"/>
<line x1="450.934" y1="245.904" x2="424.905" y2="322.066" stroke="#111111" stroke-width="3" stroke-linecap="round"/>
<line x1="413.757" y1="167.836" x2="450.715" y2="246.003" stroke="#111111" stroke-width="3" stroke-linecap="round"/>
<line x1="1.5" y1="-1.5" x2="87.043" y2="-1.5" transform="matrix(-0.224264 0.974528 -0.978029 -0.208469 301.644 118.475)" stroke="#111111" stroke-width="3" stroke-linecap="round"/>
<line x1="218.104" y1="53.7285" x2="301.91" y2="118.374" stroke="#111111" stroke-width="3" stroke-linecap="round"/>
<line x1="303.631" y1="119.47" x2="412.258" y2="169.013" stroke="#111111" stroke-width="3" stroke-linecap="round"/>
<line x1="380.313" y1="96.7784" x2="411.291" y2="163.972" stroke="#111111" stroke-width="3" stroke-linecap="round"/>
<line x1="216.585" y1="51.5896" x2="484.873" y2="67.1852" stroke="#111111" stroke-width="3" stroke-linecap="round"/>
<line x1="164.822" y1="-14.0861" x2="485.914" y2="67.1778" stroke="#111111" stroke-width="3" stroke-linecap="round"/>
<line x1="217.836" y1="52.9372" x2="378.965" y2="95.9129" stroke="#111111" stroke-width="3" stroke-linecap="round"/>
<line x1="1.5" y1="-1.5" x2="66.3899" y2="-1.5" transform="matrix(-0.983825 -0.179134 0.192886 -0.981221 479.755 177.545)" stroke="#111111" stroke-width="3" stroke-linecap="round"/>
<line x1="475.001" y1="346.71" x2="424.194" y2="322.529" stroke="#111111" stroke-width="3" stroke-linecap="round"/>
<line x1="211.933" y1="275.432" x2="447.389" y2="401.969" stroke="#111111" stroke-width="3" stroke-linecap="round"/>
<line x1="1.5" y1="-1.5" x2="65.9809" y2="-1.5" transform="matrix(-0.329929 0.944006 -0.951391 -0.307986 281.186 205.921)" stroke="#111111" stroke-width="3" stroke-linecap="round"/>
<line x1="424.127" y1="320.995" x2="260.518" y2="270.918" stroke="#111111" stroke-width="3" stroke-linecap="round"/>
<line x1="258.867" y1="270.658" x2="211.516" y2="274.42" stroke="#111111" stroke-width="3" stroke-linecap="round"/>
<line x1="1.5" y1="998.5" x2="428.5" y2="998.5" stroke="#111111" stroke-width="3" stroke-linecap="round"/>
<rect width="430" height="80" fill="#111111"/>
<line x1="1.5" y1="78.5" x2="428.5" y2="78.5" stroke="#111111" stroke-width="3" stroke-linecap="round"/>
<path d="M38.2344 57H31.5312V46.4766C30.0469 46.1016 28.6797 45.5 27.4297 44.6719C26.1953 43.8438 25.1328 42.8594 24.2422 41.7188C23.3516 40.5625 22.6562 39.2891 22.1562 37.8984C21.6719 36.4922 21.4297 35.0156 21.4297 33.4688V23.3906H28.1562V33.4688C28.1562 34.3906 28.3281 35.2656 28.6719 36.0938C29.0312 36.9062 29.5156 37.6172 30.125 38.2266C30.7344 38.8359 31.4453 39.3203 32.2578 39.6797C33.0859 40.0234 33.9609 40.1953 34.8828 40.1953C35.8047 40.1953 36.6719 40.0234 37.4844 39.6797C38.3125 39.3203 39.0312 38.8359 39.6406 38.2266C40.25 37.6172 40.7266 36.9062 41.0703 36.0938C41.4297 35.2656 41.6094 34.3906 41.6094 33.4688V23.3906H48.3125V33.4688C48.3125 35.0156 48.0625 36.4922 47.5625 37.8984C47.0781 39.2891 46.3906 40.5625 45.5 41.7188C44.6094 42.8594 43.5469 43.8438 42.3125 44.6719C41.0781 45.5 39.7188 46.1016 38.2344 46.4766V57ZM78.1325 40.3359C78.1325 41.9297 77.9216 43.4688 77.4997 44.9531C77.0934 46.4219 76.5153 47.8047 75.7653 49.1016C75.0153 50.3828 74.1091 51.5547 73.0466 52.6172C71.9841 53.6797 70.8122 54.5938 69.5309 55.3594C68.2497 56.1094 66.8669 56.6875 65.3825 57.0938C63.8981 57.5156 62.3591 57.7266 60.7653 57.7266C59.1716 57.7266 57.6325 57.5156 56.1481 57.0938C54.6794 56.6875 53.2966 56.1094 51.9997 55.3594C50.7184 54.5938 49.5466 53.6797 48.4841 52.6172C47.4216 51.5547 46.5075 50.3828 45.7419 49.1016C44.9919 47.8047 44.4059 46.4219 43.9841 44.9531C43.5778 43.4688 43.3747 41.9297 43.3747 40.3359C43.3747 38.7422 43.5778 37.2031 43.9841 35.7188C44.4059 34.2344 44.9919 32.8516 45.7419 31.5703C46.5075 30.2891 47.4216 29.1172 48.4841 28.0547C49.5466 26.9922 50.7184 26.0859 51.9997 25.3359C53.2966 24.5859 54.6794 24.0078 56.1481 23.6016C57.6325 23.1797 59.1716 22.9688 60.7653 22.9688C62.3591 22.9688 63.8981 23.1797 65.3825 23.6016C66.8669 24.0078 68.2497 24.5859 69.5309 25.3359C70.8122 26.0859 71.9841 26.9922 73.0466 28.0547C74.1091 29.1172 75.0153 30.2891 75.7653 31.5703C76.5153 32.8516 77.0934 34.2344 77.4997 35.7188C77.9216 37.2031 78.1325 38.7422 78.1325 40.3359ZM71.4528 40.3359C71.4528 38.8672 71.1716 37.4844 70.6091 36.1875C70.0466 34.875 69.2809 33.7422 68.3122 32.7891C67.3591 31.8203 66.2262 31.0547 64.9137 30.4922C63.6169 29.9297 62.2341 29.6484 60.7653 29.6484C59.2809 29.6484 57.8903 29.9297 56.5934 30.4922C55.2966 31.0547 54.1637 31.8203 53.195 32.7891C52.2262 33.7422 51.4606 34.875 50.8981 36.1875C50.3356 37.4844 50.0544 38.8672 50.0544 40.3359C50.0544 41.8047 50.3356 43.1875 50.8981 44.4844C51.4606 45.7656 52.2262 46.8906 53.195 47.8594C54.1637 48.8281 55.2966 49.5938 56.5934 50.1562C57.8903 50.7188 59.2809 51 60.7653 51C62.2341 51 63.6169 50.7188 64.9137 50.1562C66.2262 49.5938 67.3591 48.8281 68.3122 47.8594C69.2809 46.8906 70.0466 45.7656 70.6091 44.4844C71.1716 43.1875 71.4528 41.8047 71.4528 40.3359ZM81.6087 30.1172V43.5703H88.3353C89.2572 43.5703 90.1244 43.3984 90.9369 43.0547C91.7494 42.6953 92.4603 42.2109 93.0697 41.6016C93.6791 40.9922 94.1556 40.2812 94.4994 39.4688C94.8587 38.6406 95.0384 37.7656 95.0384 36.8438C95.0384 35.9219 94.8587 35.0547 94.4994 34.2422C94.1556 33.4141 93.6791 32.6953 93.0697 32.0859C92.4603 31.4766 91.7494 31 90.9369 30.6562C90.1244 30.2969 89.2572 30.1172 88.3353 30.1172H81.6087ZM81.6087 57H74.8822V23.3906H88.3353C89.5697 23.3906 90.7572 23.5547 91.8978 23.8828C93.0384 24.1953 94.1009 24.6484 95.0853 25.2422C96.0853 25.8203 96.9916 26.5234 97.8041 27.3516C98.6322 28.1641 99.3353 29.0703 99.9134 30.0703C100.507 31.0703 100.96 32.1406 101.273 33.2812C101.601 34.4219 101.765 35.6094 101.765 36.8438C101.765 38 101.617 39.125 101.32 40.2188C101.038 41.3125 100.624 42.3516 100.077 43.3359C99.5462 44.3203 98.89 45.2266 98.1087 46.0547C97.3275 46.8828 96.4525 47.6016 95.4837 48.2109L99.2103 57H92.0619L89.1322 50.2266L81.6087 50.2734V57ZM125.022 43.5703C125.022 45.4297 124.671 47.1797 123.968 48.8203C123.265 50.4453 122.304 51.8672 121.085 53.0859C119.866 54.2891 118.437 55.2422 116.796 55.9453C115.171 56.6484 113.429 57 111.569 57C109.71 57 107.96 56.6484 106.319 55.9453C104.694 55.2422 103.272 54.2891 102.054 53.0859C100.851 51.8672 99.8975 50.4453 99.1944 48.8203C98.4912 47.1797 98.1397 45.4297 98.1397 43.5703V23.3906H104.843V43.5703C104.843 44.4922 105.015 45.3594 105.358 46.1719C105.718 46.9844 106.202 47.6953 106.812 48.3047C107.421 48.9141 108.132 49.3984 108.944 49.7578C109.772 50.1016 110.647 50.2734 111.569 50.2734C112.491 50.2734 113.358 50.1016 114.171 49.7578C114.999 49.3984 115.718 48.9141 116.327 48.3047C116.937 47.6953 117.413 46.9844 117.757 46.1719C118.116 45.3594 118.296 44.4922 118.296 43.5703V23.3906H125.022V43.5703Z" fill="white"/>
<rect x="370" y="20" width="40" height="40" rx="15" fill="white"/>
<path d="M242.148 45V33.3636H246.511C247.405 33.3636 248.155 33.5303 248.761 33.8636C249.371 34.197 249.831 34.6553 250.142 35.2386C250.456 35.8182 250.614 36.4773 250.614 37.2159C250.614 37.9621 250.456 38.625 250.142 39.2045C249.828 39.7841 249.364 40.2405 248.75 40.5739C248.136 40.9034 247.381 41.0682 246.483 41.0682H243.591V39.3352H246.199C246.722 39.3352 247.15 39.2443 247.483 39.0625C247.816 38.8807 248.063 38.6307 248.222 38.3125C248.384 37.9943 248.466 37.6288 248.466 37.2159C248.466 36.803 248.384 36.4394 248.222 36.125C248.063 35.8106 247.814 35.5663 247.477 35.392C247.144 35.214 246.714 35.125 246.188 35.125H244.256V45H242.148ZM252.354 45V36.2727H254.348V37.7273H254.439C254.598 37.2235 254.871 36.8352 255.257 36.5625C255.647 36.286 256.092 36.1477 256.592 36.1477C256.706 36.1477 256.833 36.1534 256.973 36.1648C257.117 36.1723 257.236 36.1856 257.331 36.2045V38.0966C257.244 38.0663 257.106 38.0398 256.916 38.017C256.731 37.9905 256.551 37.9773 256.376 37.9773C256.001 37.9773 255.664 38.0587 255.365 38.2216C255.07 38.3807 254.837 38.6023 254.666 38.8864C254.496 39.1705 254.411 39.4981 254.411 39.8693V45H252.354ZM262.145 45.1705C261.293 45.1705 260.554 44.983 259.929 44.608C259.304 44.233 258.819 43.7083 258.474 43.0341C258.134 42.3598 257.963 41.572 257.963 40.6705C257.963 39.7689 258.134 38.9792 258.474 38.3011C258.819 37.6231 259.304 37.0966 259.929 36.7216C260.554 36.3466 261.293 36.1591 262.145 36.1591C262.997 36.1591 263.736 36.3466 264.361 36.7216C264.986 37.0966 265.469 37.6231 265.81 38.3011C266.154 38.9792 266.327 39.7689 266.327 40.6705C266.327 41.572 266.154 42.3598 265.81 43.0341C265.469 43.7083 264.986 44.233 264.361 44.608C263.736 44.983 262.997 45.1705 262.145 45.1705ZM262.156 43.5227C262.618 43.5227 263.005 43.3958 263.315 43.142C263.626 42.8845 263.857 42.5398 264.009 42.108C264.164 41.6761 264.241 41.1951 264.241 40.6648C264.241 40.1307 264.164 39.6477 264.009 39.2159C263.857 38.7803 263.626 38.4337 263.315 38.1761C263.005 37.9186 262.618 37.7898 262.156 37.7898C261.683 37.7898 261.289 37.9186 260.974 38.1761C260.664 38.4337 260.431 38.7803 260.276 39.2159C260.124 39.6477 260.048 40.1307 260.048 40.6648C260.048 41.1951 260.124 41.6761 260.276 42.108C260.431 42.5398 260.664 42.8845 260.974 43.142C261.289 43.3958 261.683 43.5227 262.156 43.5227ZM272.493 36.2727V37.8636H267.334V36.2727H272.493ZM268.624 45V35.4489C268.624 34.8617 268.745 34.3731 268.987 33.983C269.233 33.5928 269.563 33.3011 269.976 33.108C270.389 32.9148 270.847 32.8182 271.351 32.8182C271.707 32.8182 272.023 32.8466 272.3 32.9034C272.576 32.9602 272.781 33.0114 272.913 33.0568L272.504 34.6477C272.417 34.6212 272.307 34.5947 272.175 34.5682C272.042 34.5379 271.894 34.5227 271.732 34.5227C271.349 34.5227 271.078 34.6155 270.919 34.8011C270.764 34.983 270.686 35.2443 270.686 35.5852V45H268.624ZM274.104 45V36.2727H276.161V45H274.104ZM275.138 35.0341C274.812 35.0341 274.532 34.9261 274.297 34.7102C274.062 34.4905 273.945 34.2273 273.945 33.9205C273.945 33.6098 274.062 33.3466 274.297 33.1307C274.532 32.911 274.812 32.8011 275.138 32.8011C275.467 32.8011 275.748 32.911 275.979 33.1307C276.214 33.3466 276.331 33.6098 276.331 33.9205C276.331 34.2273 276.214 34.4905 275.979 34.7102C275.748 34.9261 275.467 35.0341 275.138 35.0341ZM280.332 33.3636V45H278.276V33.3636H280.332ZM286.311 45.1705C285.436 45.1705 284.68 44.9886 284.044 44.625C283.411 44.2576 282.925 43.7386 282.584 43.0682C282.243 42.3939 282.072 41.6004 282.072 40.6875C282.072 39.7898 282.243 39.0019 282.584 38.3239C282.929 37.642 283.41 37.1117 284.027 36.733C284.644 36.3504 285.37 36.1591 286.203 36.1591C286.741 36.1591 287.249 36.2462 287.726 36.4205C288.207 36.5909 288.631 36.8561 288.999 37.2159C289.37 37.5758 289.661 38.0341 289.874 38.5909C290.086 39.1439 290.192 39.803 290.192 40.5682V41.1989H283.038V39.8125H288.22C288.216 39.4186 288.131 39.0682 287.964 38.7614C287.798 38.4508 287.565 38.2064 287.266 38.0284C286.97 37.8504 286.625 37.7614 286.232 37.7614C285.811 37.7614 285.442 37.8636 285.124 38.0682C284.805 38.2689 284.557 38.5341 284.379 38.8636C284.205 39.1894 284.116 39.5473 284.112 39.9375V41.1477C284.112 41.6553 284.205 42.0909 284.391 42.4545C284.576 42.8144 284.836 43.0909 285.169 43.2841C285.502 43.4735 285.893 43.5682 286.339 43.5682C286.639 43.5682 286.91 43.5265 287.152 43.4432C287.394 43.3561 287.605 43.2292 287.783 43.0625C287.961 42.8958 288.095 42.6894 288.186 42.4432L290.107 42.6591C289.985 43.1667 289.754 43.6098 289.413 43.9886C289.076 44.3636 288.644 44.6553 288.118 44.8636C287.591 45.0682 286.989 45.1705 286.311 45.1705Z" fill="white"/>
<path d="M304.597 45L301.312 33.3636H303.58L305.676 41.9148H305.784L308.023 33.3636H310.085L312.33 41.9205H312.432L314.528 33.3636H316.795L313.511 45H311.432L309.102 36.8352H309.011L306.676 45H304.597ZM321.082 45.1705C320.23 45.1705 319.491 44.983 318.866 44.608C318.241 44.233 317.757 43.7083 317.412 43.0341C317.071 42.3598 316.901 41.572 316.901 40.6705C316.901 39.7689 317.071 38.9792 317.412 38.3011C317.757 37.6231 318.241 37.0966 318.866 36.7216C319.491 36.3466 320.23 36.1591 321.082 36.1591C321.935 36.1591 322.673 36.3466 323.298 36.7216C323.923 37.0966 324.406 37.6231 324.747 38.3011C325.092 38.9792 325.264 39.7689 325.264 40.6705C325.264 41.572 325.092 42.3598 324.747 43.0341C324.406 43.7083 323.923 44.233 323.298 44.608C322.673 44.983 321.935 45.1705 321.082 45.1705ZM321.094 43.5227C321.556 43.5227 321.942 43.3958 322.253 43.142C322.563 42.8845 322.795 42.5398 322.946 42.108C323.101 41.6761 323.179 41.1951 323.179 40.6648C323.179 40.1307 323.101 39.6477 322.946 39.2159C322.795 38.7803 322.563 38.4337 322.253 38.1761C321.942 37.9186 321.556 37.7898 321.094 37.7898C320.62 37.7898 320.226 37.9186 319.912 38.1761C319.601 38.4337 319.368 38.7803 319.213 39.2159C319.062 39.6477 318.986 40.1307 318.986 40.6648C318.986 41.1951 319.062 41.6761 319.213 42.108C319.368 42.5398 319.601 42.8845 319.912 43.142C320.226 43.3958 320.62 43.5227 321.094 43.5227ZM327.01 45V36.2727H329.004V37.7273H329.095C329.254 37.2235 329.527 36.8352 329.913 36.5625C330.304 36.286 330.749 36.1477 331.249 36.1477C331.362 36.1477 331.489 36.1534 331.629 36.1648C331.773 36.1723 331.893 36.1856 331.987 36.2045V38.0966C331.9 38.0663 331.762 38.0398 331.572 38.017C331.387 37.9905 331.207 37.9773 331.033 37.9773C330.658 37.9773 330.321 38.0587 330.021 38.2216C329.726 38.3807 329.493 38.6023 329.322 38.8864C329.152 39.1705 329.067 39.4981 329.067 39.8693V45H327.01ZM335.229 42.2614L335.223 39.7784H335.553L338.689 36.2727H341.092L337.234 40.5682H336.808L335.229 42.2614ZM333.354 45V33.3636H335.411V45H333.354ZM338.831 45L335.99 41.0284L337.376 39.5795L341.291 45H338.831ZM349.361 38.5795L347.486 38.7841C347.433 38.5947 347.34 38.4167 347.207 38.25C347.079 38.0833 346.904 37.9489 346.685 37.8466C346.465 37.7443 346.196 37.6932 345.878 37.6932C345.45 37.6932 345.09 37.786 344.798 37.9716C344.51 38.1572 344.368 38.3977 344.372 38.6932C344.368 38.947 344.461 39.1534 344.651 39.3125C344.844 39.4716 345.162 39.6023 345.605 39.7045L347.094 40.0227C347.92 40.2008 348.533 40.483 348.935 40.8693C349.34 41.2557 349.545 41.7614 349.548 42.3864C349.545 42.9356 349.384 43.4205 349.065 43.8409C348.751 44.2576 348.313 44.5833 347.753 44.8182C347.192 45.053 346.548 45.1705 345.821 45.1705C344.753 45.1705 343.893 44.947 343.241 44.5C342.59 44.0492 342.202 43.4223 342.077 42.6193L344.082 42.4261C344.173 42.8201 344.366 43.1174 344.662 43.3182C344.957 43.5189 345.342 43.6193 345.815 43.6193C346.304 43.6193 346.696 43.5189 346.991 43.3182C347.291 43.1174 347.44 42.8693 347.44 42.5739C347.44 42.3239 347.344 42.1174 347.151 41.9545C346.961 41.7917 346.666 41.6667 346.264 41.5795L344.776 41.267C343.938 41.0928 343.319 40.7992 342.918 40.3864C342.516 39.9697 342.317 39.4432 342.321 38.8068C342.317 38.2689 342.463 37.803 342.759 37.4091C343.058 37.0114 343.473 36.7045 344.003 36.4886C344.537 36.2689 345.152 36.1591 345.849 36.1591C346.872 36.1591 347.677 36.3769 348.264 36.8125C348.855 37.2481 349.221 37.8371 349.361 38.5795Z" fill="white"/>
<g clip-path="url(#clip1_510_354)">
<path d="M399.822 32.8735H380.178C380.08 32.8735 380 32.9534 380 33.0516V33.5129C380 33.5761 380.029 33.6359 380.078 33.6753C383.092 36.0794 386.106 38.476 389.111 40.8803C389.352 41.0713 389.635 41.1628 389.917 41.1628C389.945 41.1628 389.972 41.1576 390 41.1557C390.028 41.1576 390.055 41.1628 390.083 41.1628C390.365 41.1628 390.648 41.0713 390.889 40.8803C393.894 38.476 396.908 36.0795 399.922 33.6753C399.971 33.6359 400 33.5761 400 33.5129V33.0516C400 32.9534 399.92 32.8735 399.822 32.8735Z" fill="#111111"/>
<path d="M399.808 36.7902L392.284 42.8238C391.62 43.3554 390.772 43.6542 389.917 43.6542C389.07 43.6542 388.231 43.3638 387.558 42.8322L384.585 40.4567L380.192 36.9551C380.114 36.8935 380 36.9485 380 37.0476V46.5992C380 46.8903 380.236 47.1263 380.527 47.1263H399.473C399.764 47.1263 400 46.8903 400 46.5992V36.8824C400 36.7831 399.885 36.7281 399.808 36.7902Z" fill="#111111"/>
</g>
</g>
<defs>
<clipPath id="clip0_510_354">
<rect width="430" height="1000" fill="white"/>
</clipPath>
<clipPath id="clip1_510_354">
<rect width="20" height="20" fill="white" transform="translate(380 30)"/>
</clipPath>
</defs>
</svg>
