<svg width="36" height="36" viewBox="0 0 36 36" fill="none" xmlns="http://www.w3.org/2000/svg">
<path d="M36 8.18551V29.049C36 30.405 34.902 31.503 33.546 31.503H27.8175V17.595L18 24.96L8.1825 17.595V31.5045H2.454C2.13161 31.5045 1.81238 31.441 1.51455 31.3176C1.21672 31.1942 0.946124 31.0133 0.71823 30.7852C0.490335 30.5572 0.309606 30.2865 0.186369 29.9886C0.0631326 29.6907 -0.000196602 29.3714 4.58477e-07 29.049V8.18551C4.58477e-07 5.15101 3.4635 3.41851 5.8905 5.23951L8.1825 6.96001L18 14.322L27.8175 6.95701L30.1095 5.23951C32.535 3.42001 36 5.15101 36 8.18551Z" fill="white"/>
</svg>
