<svg width="20" height="20" viewBox="0 0 20 20" fill="none" xmlns="http://www.w3.org/2000/svg">
<g clip-path="url(#clip0_439_2)">
<path d="M19.8218 2.87354H0.178047C0.0796484 2.87354 0 2.95338 0 3.05162V3.51291C0 3.57607 0.0286719 3.63592 0.078125 3.67525C3.09203 6.07943 6.10566 8.47596 9.11133 10.8803C9.35211 11.0713 9.63469 11.1628 9.91699 11.1628C9.94504 11.1628 9.97223 11.1576 10 11.1557C10.0276 11.1576 10.0549 11.1628 10.0827 11.1628C10.3653 11.1628 10.6478 11.0713 10.8886 10.8803C13.8944 8.476 16.908 6.07947 19.9218 3.67525C19.9711 3.63592 20 3.57607 20 3.51291V3.05162C20 2.95338 19.9202 2.87354 19.8218 2.87354Z" fill="#111111"/>
<path d="M19.8077 6.79017L12.2843 12.8238C11.6196 13.3554 10.7724 13.6542 9.91699 13.6542C9.06981 13.6542 8.2309 13.3638 7.55813 12.8322L4.58465 10.4567L0.191797 6.95509C0.114453 6.89349 0 6.94853 0 7.04759V16.5992C0 16.8903 0.235898 17.1263 0.527031 17.1263H19.4728C19.7639 17.1263 20 16.8903 20 16.5992V6.88235C20 6.78314 19.8852 6.72806 19.8077 6.79017Z" fill="#111111"/>
</g>
<defs>
<clipPath id="clip0_439_2">
<rect width="20" height="20" fill="white"/>
</clipPath>
</defs>
</svg>
