<svg width="493" height="48" viewBox="0 0 493 48" fill="none" xmlns="http://www.w3.org/2000/svg">
<path d="M44.7812 46.7812H35.8438V14.7812C35.8438 14.1562 35.7188 13.5729 35.4688 13.0312C35.2396 12.4896 34.9167 12.0208 34.5 11.625C34.1042 11.2083 33.6354 10.8854 33.0938 10.6562C32.5521 10.4271 31.9688 10.3125 31.3438 10.3125C30.7188 10.3125 30.1354 10.4271 29.5938 10.6562C29.0521 10.8854 28.5729 11.2083 28.1562 11.625C27.7604 12.0208 27.4479 12.4896 27.2188 13.0312C26.9896 13.5729 26.875 14.1562 26.875 14.7812V46.7812H17.9062V14.7812C17.9062 14.1562 17.7917 13.5729 17.5625 13.0312C17.3333 12.4896 17.0104 12.0208 16.5938 11.625C16.1979 11.2083 15.7292 10.8854 15.1875 10.6562C14.6458 10.4271 14.0625 10.3125 13.4375 10.3125C12.8125 10.3125 12.2292 10.4271 11.6875 10.6562C11.1458 10.8854 10.6667 11.2083 10.25 11.625C9.85417 12.0208 9.54167 12.4896 9.3125 13.0312C9.08333 13.5729 8.96875 14.1562 8.96875 14.7812V46.7812H0V14.7812C0 12.9271 0.34375 11.1875 1.03125 9.5625C1.73958 7.91667 2.69792 6.48958 3.90625 5.28125C5.13542 4.05208 6.5625 3.09375 8.1875 2.40625C9.83333 1.69792 11.5833 1.34375 13.4375 1.34375C15.1042 1.34375 16.7083 1.64583 18.25 2.25C19.7917 2.83333 21.1771 3.6875 22.4062 4.8125C23.6354 3.6875 25.0104 2.83333 26.5312 2.25C28.0729 1.64583 29.6771 1.34375 31.3438 1.34375C33.1979 1.34375 34.9375 1.69792 36.5625 2.40625C38.2083 3.09375 39.6354 4.05208 40.8438 5.28125C42.0729 6.48958 43.0312 7.91667 43.7188 9.5625C44.4271 11.1875 44.7812 12.9271 44.7812 14.7812V46.7812ZM83.9375 46.7812H81.875L78.5625 42.1875C77.75 42.9167 76.8854 43.6042 75.9688 44.25C75.0729 44.875 74.125 45.4271 73.125 45.9062C72.125 46.3646 71.0938 46.7292 70.0312 47C68.9896 47.2708 67.9271 47.4062 66.8438 47.4062C64.4896 47.4062 62.2708 47.0104 60.1875 46.2188C58.125 45.4271 56.3125 44.2812 54.75 42.7812C53.2083 41.2604 51.9896 39.4062 51.0938 37.2188C50.1979 35.0312 49.75 32.5417 49.75 29.75C49.75 27.1458 50.1979 24.7604 51.0938 22.5938C51.9896 20.4062 53.2083 18.5312 54.75 16.9688C56.3125 15.4062 58.125 14.1979 60.1875 13.3438C62.2708 12.4688 64.4896 12.0312 66.8438 12.0312C67.9271 12.0312 69 12.1667 70.0625 12.4375C71.125 12.7083 72.1562 13.0833 73.1562 13.5625C74.1562 14.0417 75.1042 14.6042 76 15.25C76.9167 15.8958 77.7708 16.5938 78.5625 17.3438L81.875 13.375H83.9375V46.7812ZM75.3438 29.75C75.3438 28.5833 75.1146 27.4583 74.6562 26.375C74.2188 25.2708 73.6146 24.3021 72.8438 23.4688C72.0729 22.6146 71.1667 21.9375 70.125 21.4375C69.1042 20.9167 68.0104 20.6562 66.8438 20.6562C65.6771 20.6562 64.5729 20.8542 63.5312 21.25C62.5104 21.6458 61.6146 22.2292 60.8438 23C60.0938 23.7708 59.5 24.7292 59.0625 25.875C58.625 27 58.4062 28.2917 58.4062 29.75C58.4062 31.2083 58.625 32.5104 59.0625 33.6562C59.5 34.7812 60.0938 35.7292 60.8438 36.5C61.6146 37.2708 62.5104 37.8542 63.5312 38.25C64.5729 38.6458 65.6771 38.8438 66.8438 38.8438C68.0104 38.8438 69.1042 38.5938 70.125 38.0938C71.1667 37.5729 72.0729 36.8958 72.8438 36.0625C73.6146 35.2083 74.2188 34.2396 74.6562 33.1562C75.1146 32.0521 75.3438 30.9167 75.3438 29.75ZM99.0625 46.7812H90.4688V0H99.0625V29.5L111.781 13.375H121.594L110.5 27.3125L121.594 46.7812H111.781L105 34.625L99.0625 42.5V46.7812ZM137.219 38.5938C137.552 38.6979 137.885 38.7708 138.219 38.8125C138.552 38.8333 138.885 38.8438 139.219 38.8438C140.052 38.8438 140.854 38.7292 141.625 38.5C142.396 38.2708 143.115 37.9479 143.781 37.5312C144.469 37.0938 145.073 36.5729 145.594 35.9688C146.135 35.3438 146.573 34.6562 146.906 33.9062L153.156 40.1875C152.365 41.3125 151.448 42.3229 150.406 43.2188C149.385 44.1146 148.271 44.875 147.062 45.5C145.875 46.125 144.615 46.5938 143.281 46.9062C141.969 47.2396 140.615 47.4062 139.219 47.4062C136.865 47.4062 134.646 46.9688 132.562 46.0938C130.5 45.2188 128.688 44 127.125 42.4375C125.583 40.875 124.365 39.0208 123.469 36.875C122.573 34.7083 122.125 32.3333 122.125 29.75C122.125 27.1042 122.573 24.6875 123.469 22.5C124.365 20.3125 125.583 18.4479 127.125 16.9062C128.688 15.3646 130.5 14.1667 132.562 13.3125C134.646 12.4583 136.865 12.0312 139.219 12.0312C140.615 12.0312 141.979 12.1979 143.312 12.5312C144.646 12.8646 145.906 13.3438 147.094 13.9688C148.302 14.5938 149.427 15.3646 150.469 16.2812C151.51 17.1771 152.427 18.1875 153.219 19.3125L137.219 38.5938ZM141.594 21C141.198 20.8542 140.802 20.7604 140.406 20.7188C140.031 20.6771 139.635 20.6562 139.219 20.6562C138.052 20.6562 136.948 20.875 135.906 21.3125C134.885 21.7292 133.99 22.3333 133.219 23.125C132.469 23.9167 131.875 24.875 131.438 26C131 27.1042 130.781 28.3542 130.781 29.75C130.781 30.0625 130.792 30.4167 130.812 30.8125C130.854 31.2083 130.906 31.6146 130.969 32.0312C131.052 32.4271 131.146 32.8125 131.25 33.1875C131.354 33.5625 131.49 33.8958 131.656 34.1875L141.594 21ZM185.344 46.7812H176.375V1.96875H185.344V46.7812ZM224.625 46.7812H222.562L219.25 42.1875C218.438 42.9167 217.573 43.6042 216.656 44.25C215.76 44.875 214.812 45.4271 213.812 45.9062C212.812 46.3646 211.781 46.7292 210.719 47C209.677 47.2708 208.615 47.4062 207.531 47.4062C205.177 47.4062 202.958 46.9688 200.875 46.0938C198.812 45.1979 197 43.9688 195.438 42.4062C193.896 40.8229 192.677 38.9583 191.781 36.8125C190.885 34.6458 190.438 32.2917 190.438 29.75C190.438 27.2292 190.885 24.8854 191.781 22.7188C192.677 20.5521 193.896 18.6771 195.438 17.0938C197 15.5104 198.812 14.2708 200.875 13.375C202.958 12.4792 205.177 12.0312 207.531 12.0312C208.281 12.0312 209.052 12.0938 209.844 12.2188C210.656 12.3438 211.438 12.5521 212.188 12.8438C212.958 13.1146 213.677 13.4792 214.344 13.9375C215.01 14.3958 215.573 14.9583 216.031 15.625V0H224.625V46.7812ZM216.031 29.75C216.031 28.5833 215.802 27.4583 215.344 26.375C214.906 25.2708 214.302 24.3021 213.531 23.4688C212.76 22.6146 211.854 21.9375 210.812 21.4375C209.792 20.9167 208.698 20.6562 207.531 20.6562C206.365 20.6562 205.26 20.8646 204.219 21.2812C203.198 21.6979 202.302 22.3021 201.531 23.0938C200.781 23.8646 200.188 24.8125 199.75 25.9375C199.312 27.0625 199.094 28.3333 199.094 29.75C199.094 30.9792 199.312 32.1458 199.75 33.25C200.188 34.3542 200.781 35.3229 201.531 36.1562C202.302 36.9896 203.198 37.6458 204.219 38.125C205.26 38.6042 206.365 38.8438 207.531 38.8438C208.698 38.8438 209.792 38.5938 210.812 38.0938C211.854 37.5729 212.76 36.8958 213.531 36.0625C214.302 35.2083 214.906 34.2396 215.344 33.1562C215.802 32.0521 216.031 30.9167 216.031 29.75ZM244.469 38.5938C244.802 38.6979 245.135 38.7708 245.469 38.8125C245.802 38.8333 246.135 38.8438 246.469 38.8438C247.302 38.8438 248.104 38.7292 248.875 38.5C249.646 38.2708 250.365 37.9479 251.031 37.5312C251.719 37.0938 252.323 36.5729 252.844 35.9688C253.385 35.3438 253.823 34.6562 254.156 33.9062L260.406 40.1875C259.615 41.3125 258.698 42.3229 257.656 43.2188C256.635 44.1146 255.521 44.875 254.312 45.5C253.125 46.125 251.865 46.5938 250.531 46.9062C249.219 47.2396 247.865 47.4062 246.469 47.4062C244.115 47.4062 241.896 46.9688 239.812 46.0938C237.75 45.2188 235.938 44 234.375 42.4375C232.833 40.875 231.615 39.0208 230.719 36.875C229.823 34.7083 229.375 32.3333 229.375 29.75C229.375 27.1042 229.823 24.6875 230.719 22.5C231.615 20.3125 232.833 18.4479 234.375 16.9062C235.938 15.3646 237.75 14.1667 239.812 13.3125C241.896 12.4583 244.115 12.0312 246.469 12.0312C247.865 12.0312 249.229 12.1979 250.562 12.5312C251.896 12.8646 253.156 13.3438 254.344 13.9688C255.552 14.5938 256.677 15.3646 257.719 16.2812C258.76 17.1771 259.677 18.1875 260.469 19.3125L244.469 38.5938ZM248.844 21C248.448 20.8542 248.052 20.7604 247.656 20.7188C247.281 20.6771 246.885 20.6562 246.469 20.6562C245.302 20.6562 244.198 20.875 243.156 21.3125C242.135 21.7292 241.24 22.3333 240.469 23.125C239.719 23.9167 239.125 24.875 238.688 26C238.25 27.1042 238.031 28.3542 238.031 29.75C238.031 30.0625 238.042 30.4167 238.062 30.8125C238.104 31.2083 238.156 31.6146 238.219 32.0312C238.302 32.4271 238.396 32.8125 238.5 33.1875C238.604 33.5625 238.74 33.8958 238.906 34.1875L248.844 21ZM296.938 46.7812H294.875L291.562 42.1875C290.75 42.9167 289.885 43.6042 288.969 44.25C288.073 44.875 287.125 45.4271 286.125 45.9062C285.125 46.3646 284.094 46.7292 283.031 47C281.99 47.2708 280.927 47.4062 279.844 47.4062C277.49 47.4062 275.271 47.0104 273.188 46.2188C271.125 45.4271 269.312 44.2812 267.75 42.7812C266.208 41.2604 264.99 39.4062 264.094 37.2188C263.198 35.0312 262.75 32.5417 262.75 29.75C262.75 27.1458 263.198 24.7604 264.094 22.5938C264.99 20.4062 266.208 18.5312 267.75 16.9688C269.312 15.4062 271.125 14.1979 273.188 13.3438C275.271 12.4688 277.49 12.0312 279.844 12.0312C280.927 12.0312 282 12.1667 283.062 12.4375C284.125 12.7083 285.156 13.0833 286.156 13.5625C287.156 14.0417 288.104 14.6042 289 15.25C289.917 15.8958 290.771 16.5938 291.562 17.3438L294.875 13.375H296.938V46.7812ZM288.344 29.75C288.344 28.5833 288.115 27.4583 287.656 26.375C287.219 25.2708 286.615 24.3021 285.844 23.4688C285.073 22.6146 284.167 21.9375 283.125 21.4375C282.104 20.9167 281.01 20.6562 279.844 20.6562C278.677 20.6562 277.573 20.8542 276.531 21.25C275.51 21.6458 274.615 22.2292 273.844 23C273.094 23.7708 272.5 24.7292 272.062 25.875C271.625 27 271.406 28.2917 271.406 29.75C271.406 31.2083 271.625 32.5104 272.062 33.6562C272.5 34.7812 273.094 35.7292 273.844 36.5C274.615 37.2708 275.51 37.8542 276.531 38.25C277.573 38.6458 278.677 38.8438 279.844 38.8438C281.01 38.8438 282.104 38.5938 283.125 38.0938C284.167 37.5729 285.073 36.8958 285.844 36.0625C286.615 35.2083 287.219 34.2396 287.656 33.1562C288.115 32.0521 288.344 30.9167 288.344 29.75ZM312.062 46.7812H303.469V0H312.062V46.7812ZM336.969 46.7812H317.469V38.2812H336.969C337.552 38.2812 338.052 38.0729 338.469 37.6562C338.885 37.2396 339.094 36.7396 339.094 36.1562C339.094 35.5521 338.885 35.1562 338.469 34.9688C338.052 34.7812 337.552 34.6875 336.969 34.6875H328.094C326.615 34.6875 325.229 34.4062 323.938 33.8438C322.646 33.2812 321.521 32.5208 320.562 31.5625C319.604 30.5833 318.844 29.4479 318.281 28.1562C317.74 26.8646 317.469 25.4792 317.469 24C317.469 22.5208 317.74 21.1354 318.281 19.8438C318.844 18.5521 319.604 17.4271 320.562 16.4688C321.521 15.5104 322.646 14.7604 323.938 14.2188C325.229 13.6562 326.615 13.375 328.094 13.375H345.375V21.875H328.094C327.51 21.875 327.01 22.0833 326.594 22.5C326.177 22.9167 325.969 23.4167 325.969 24C325.969 24.6042 326.177 25.125 326.594 25.5625C327.01 25.9792 327.51 26.1875 328.094 26.1875H336.969C338.427 26.1875 339.802 26.4375 341.094 26.9375C342.385 27.4167 343.51 28.0938 344.469 28.9688C345.427 29.8438 346.188 30.8958 346.75 32.125C347.312 33.3542 347.594 34.6979 347.594 36.1562C347.594 37.6354 347.312 39.0208 346.75 40.3125C346.188 41.5833 345.427 42.7083 344.469 43.6875C343.51 44.6458 342.385 45.4062 341.094 45.9688C339.802 46.5104 338.427 46.7812 336.969 46.7812ZM379.969 10.9375V28.875H388.938C390.167 28.875 391.323 28.6458 392.406 28.1875C393.49 27.7083 394.438 27.0625 395.25 26.25C396.062 25.4375 396.698 24.4896 397.156 23.4062C397.635 22.3021 397.875 21.1354 397.875 19.9062C397.875 18.6771 397.635 17.5208 397.156 16.4375C396.698 15.3333 396.062 14.375 395.25 13.5625C394.438 12.75 393.49 12.1146 392.406 11.6562C391.323 11.1771 390.167 10.9375 388.938 10.9375H379.969ZM379.969 46.7812H371V1.96875H388.938C390.583 1.96875 392.167 2.1875 393.688 2.625C395.208 3.04167 396.625 3.64583 397.938 4.4375C399.271 5.20833 400.479 6.14583 401.562 7.25C402.667 8.33333 403.604 9.54167 404.375 10.875C405.167 12.2083 405.771 13.6354 406.188 15.1562C406.625 16.6771 406.844 18.2604 406.844 19.9062C406.844 21.4479 406.646 22.9479 406.25 24.4062C405.875 25.8646 405.323 27.25 404.594 28.5625C403.885 29.875 403.01 31.0833 401.969 32.1875C400.927 33.2917 399.76 34.25 398.469 35.0625L403.438 46.7812H393.906L390 37.75L379.969 37.8125V46.7812ZM424.781 38.5938C425.115 38.6979 425.448 38.7708 425.781 38.8125C426.115 38.8333 426.448 38.8438 426.781 38.8438C427.615 38.8438 428.417 38.7292 429.188 38.5C429.958 38.2708 430.677 37.9479 431.344 37.5312C432.031 37.0938 432.635 36.5729 433.156 35.9688C433.698 35.3438 434.135 34.6562 434.469 33.9062L440.719 40.1875C439.927 41.3125 439.01 42.3229 437.969 43.2188C436.948 44.1146 435.833 44.875 434.625 45.5C433.438 46.125 432.177 46.5938 430.844 46.9062C429.531 47.2396 428.177 47.4062 426.781 47.4062C424.427 47.4062 422.208 46.9688 420.125 46.0938C418.062 45.2188 416.25 44 414.688 42.4375C413.146 40.875 411.927 39.0208 411.031 36.875C410.135 34.7083 409.688 32.3333 409.688 29.75C409.688 27.1042 410.135 24.6875 411.031 22.5C411.927 20.3125 413.146 18.4479 414.688 16.9062C416.25 15.3646 418.062 14.1667 420.125 13.3125C422.208 12.4583 424.427 12.0312 426.781 12.0312C428.177 12.0312 429.542 12.1979 430.875 12.5312C432.208 12.8646 433.469 13.3438 434.656 13.9688C435.865 14.5938 436.99 15.3646 438.031 16.2812C439.073 17.1771 439.99 18.1875 440.781 19.3125L424.781 38.5938ZM429.156 21C428.76 20.8542 428.365 20.7604 427.969 20.7188C427.594 20.6771 427.198 20.6562 426.781 20.6562C425.615 20.6562 424.51 20.875 423.469 21.3125C422.448 21.7292 421.552 22.3333 420.781 23.125C420.031 23.9167 419.438 24.875 419 26C418.562 27.1042 418.344 28.3542 418.344 29.75C418.344 30.0625 418.354 30.4167 418.375 30.8125C418.417 31.2083 418.469 31.6146 418.531 32.0312C418.615 32.4271 418.708 32.8125 418.812 33.1875C418.917 33.5625 419.052 33.8958 419.219 34.1875L429.156 21ZM477.25 46.7812H475.188L471.875 42.1875C471.062 42.9167 470.198 43.6042 469.281 44.25C468.385 44.875 467.438 45.4271 466.438 45.9062C465.438 46.3646 464.406 46.7292 463.344 47C462.302 47.2708 461.24 47.4062 460.156 47.4062C457.802 47.4062 455.583 47.0104 453.5 46.2188C451.438 45.4271 449.625 44.2812 448.062 42.7812C446.521 41.2604 445.302 39.4062 444.406 37.2188C443.51 35.0312 443.062 32.5417 443.062 29.75C443.062 27.1458 443.51 24.7604 444.406 22.5938C445.302 20.4062 446.521 18.5312 448.062 16.9688C449.625 15.4062 451.438 14.1979 453.5 13.3438C455.583 12.4688 457.802 12.0312 460.156 12.0312C461.24 12.0312 462.312 12.1667 463.375 12.4375C464.438 12.7083 465.469 13.0833 466.469 13.5625C467.469 14.0417 468.417 14.6042 469.312 15.25C470.229 15.8958 471.083 16.5938 471.875 17.3438L475.188 13.375H477.25V46.7812ZM468.656 29.75C468.656 28.5833 468.427 27.4583 467.969 26.375C467.531 25.2708 466.927 24.3021 466.156 23.4688C465.385 22.6146 464.479 21.9375 463.438 21.4375C462.417 20.9167 461.323 20.6562 460.156 20.6562C458.99 20.6562 457.885 20.8542 456.844 21.25C455.823 21.6458 454.927 22.2292 454.156 23C453.406 23.7708 452.812 24.7292 452.375 25.875C451.938 27 451.719 28.2917 451.719 29.75C451.719 31.2083 451.938 32.5104 452.375 33.6562C452.812 34.7812 453.406 35.7292 454.156 36.5C454.927 37.2708 455.823 37.8542 456.844 38.25C457.885 38.6458 458.99 38.8438 460.156 38.8438C461.323 38.8438 462.417 38.5938 463.438 38.0938C464.479 37.5729 465.385 36.8958 466.156 36.0625C466.927 35.2083 467.531 34.2396 467.969 33.1562C468.427 32.0521 468.656 30.9167 468.656 29.75ZM492.375 46.7812H483.781V0H492.375V46.7812Z" fill="#111111"/>
</svg>
