<svg width="809" height="884" viewBox="0 0 809 884" fill="none" xmlns="http://www.w3.org/2000/svg">
<circle cx="584.733" cy="365.327" r="5.19442" transform="rotate(180 584.733 365.327)" fill="#111111"/>
<circle cx="500.016" cy="375.519" r="5.19442" transform="rotate(180 500.016 375.519)" fill="#111111"/>
<circle cx="245.862" cy="240.988" r="5.19442" transform="rotate(180 245.862 240.988)" fill="#111111"/>
<circle cx="166.438" cy="146.205" r="5.19442" transform="rotate(180 166.438 146.205)" fill="#111111"/>
<circle cx="118.785" cy="239.969" r="5.19442" transform="rotate(180 118.785 239.969)" fill="#111111"/>
<circle cx="165.379" cy="416.286" r="5.19442" transform="rotate(180 165.379 416.286)" fill="#111111"/>
<circle cx="303.046" cy="413.229" r="5.19442" transform="rotate(180 303.046 413.229)" fill="#111111"/>
<circle cx="233.154" cy="556.932" r="5.19442" transform="rotate(180 233.154 556.932)" fill="#111111"/>
<circle cx="424.828" cy="638.466" r="5.19442" transform="rotate(180 424.828 638.466)" fill="#111111"/>
<circle cx="288.194" cy="679.194" r="5.19442" transform="rotate(180 288.194 679.194)" fill="#111111"/>
<circle cx="572.194" cy="761.194" r="5.19442" transform="rotate(180 572.194 761.194)" fill="#111111"/>
<circle cx="567.194" cy="802.194" r="5.19442" transform="rotate(180 567.194 802.194)" fill="#111111"/>
<circle cx="622.194" cy="719.194" r="5.19442" transform="rotate(180 622.194 719.194)" fill="#111111"/>
<circle cx="670.194" cy="878.194" r="5.19442" transform="rotate(180 670.194 878.194)" fill="#111111"/>
<circle cx="115.608" cy="535.529" r="5.19442" transform="rotate(180 115.608 535.529)" fill="#111111"/>
<circle cx="101.194" cy="730.194" r="5.19442" transform="rotate(180 101.194 730.194)" fill="#111111"/>
<circle cx="213.033" cy="283.793" r="5.19442" transform="rotate(180 213.033 283.793)" fill="#111111"/>
<circle cx="570.967" cy="436.67" r="5.19442" transform="rotate(180 570.967 436.67)" fill="#111111"/>
<circle cx="637.682" cy="504.954" r="5.19442" transform="rotate(180 637.682 504.954)" fill="#111111"/>
<circle cx="594.194" cy="552.194" r="5.19442" transform="rotate(180 594.194 552.194)" fill="#111111"/>
<circle cx="803.194" cy="709.194" r="5.19442" transform="rotate(180 803.194 709.194)" fill="#111111"/>
<circle cx="736.194" cy="713.194" r="5.19442" transform="rotate(180 736.194 713.194)" fill="#111111"/>
<circle cx="461.892" cy="489.667" r="5.19442" transform="rotate(180 461.892 489.667)" fill="#111111"/>
<line x1="102.698" y1="729.9" x2="231.9" y2="557.302" stroke="#111111" stroke-width="3" stroke-linecap="round"/>
<line x1="105.064" y1="729.165" x2="290.165" y2="679.936" stroke="#111111" stroke-width="3" stroke-linecap="round"/>
<path d="M232.624 556.932L-6.39912 275.753" stroke="#111111" stroke-width="3" stroke-linecap="round"/>
<line x1="102.193" y1="731.888" x2="-6.11195" y2="276.806" stroke="#111111" stroke-width="3" stroke-linecap="round"/>
<line x1="101.931" y1="731.47" x2="-203.53" y2="539.069" stroke="#111111" stroke-width="3" stroke-linecap="round"/>
<line x1="100.948" y1="730.461" x2="-61.5394" y2="452.052" stroke="#111111" stroke-width="3" stroke-linecap="round"/>
<path d="M-6 276L212.504 283.284" stroke="#111111" stroke-width="3" stroke-linecap="round"/>
<path d="M213.664 285.217L233.683 555.913" stroke="#111111" stroke-width="3" stroke-linecap="round"/>
<path d="M213.033 283.793L459.245 487.119" stroke="#111111" stroke-width="3" stroke-linecap="round"/>
<path d="M460.216 488.642L235.272 556.932" stroke="#111111" stroke-width="3" stroke-linecap="round"/>
<line x1="233.096" y1="557.442" x2="573.491" y2="762.941" stroke="#111111" stroke-width="3" stroke-linecap="round"/>
<line x1="460.674" y1="488.444" x2="573.815" y2="763.042" stroke="#111111" stroke-width="3" stroke-linecap="round"/>
<line x1="1.5" y1="-1.5" x2="175.533" y2="-1.5" transform="matrix(-0.711832 0.70235 -0.729082 -0.684426 585.792 363.289)" stroke="#111111" stroke-width="3" stroke-linecap="round"/>
<line x1="636.667" y1="504.728" x2="573.812" y2="762.897" stroke="#111111" stroke-width="3" stroke-linecap="round"/>
<line x1="1.5" y1="-1.5" x2="71.1583" y2="-1.5" transform="matrix(-0.189471 0.981886 -0.9844 -0.175946 583.674 366.347)" stroke="#111111" stroke-width="3" stroke-linecap="round"/>
<line x1="1.5" y1="-1.5" x2="120.283" y2="-1.5" transform="matrix(-0.904342 0.426808 -0.453997 -0.891003 572.025 435.65)" stroke="#111111" stroke-width="3" stroke-linecap="round"/>
<line x1="1.5" y1="-1.5" x2="91.7603" y2="-1.5" transform="matrix(-0.692658 -0.721266 0.74718 -0.664621 636.623 502.916)" stroke="#111111" stroke-width="3" stroke-linecap="round"/>
<line x1="1.5" y1="-1.5" x2="231.774" y2="-1.5" transform="matrix(-0.426723 -0.904382 0.916312 -0.400464 738.285 713.885)" stroke="#111111" stroke-width="3" stroke-linecap="round"/>
<line x1="803.249" y1="711.107" x2="671.107" y2="878.75" stroke="#111111" stroke-width="3" stroke-linecap="round"/>
<line x1="735.844" y1="713.946" x2="670.946" y2="878.156" stroke="#111111" stroke-width="3" stroke-linecap="round"/>
<line x1="574.111" y1="763.204" x2="670.204" y2="879.888" stroke="#111111" stroke-width="3" stroke-linecap="round"/>
<line x1="572.321" y1="761.66" x2="567.66" y2="802.679" stroke="#111111" stroke-width="3" stroke-linecap="round"/>
<line x1="622.847" y1="719.116" x2="573.116" y2="762.153" stroke="#111111" stroke-width="3" stroke-linecap="round"/>
<line x1="637.392" y1="505.6" x2="622.6" y2="718.607" stroke="#111111" stroke-width="3" stroke-linecap="round"/>
<line x1="622.863" y1="719.015" x2="670.015" y2="879.137" stroke="#111111" stroke-width="3" stroke-linecap="round"/>
<line x1="568.1" y1="802.697" x2="668.697" y2="877.9" stroke="#111111" stroke-width="3" stroke-linecap="round"/>
<line x1="101.714" y1="729.75" x2="566.728" y2="802.435" stroke="#111111" stroke-width="3" stroke-linecap="round"/>
<line x1="801.591" y1="709.585" x2="736.586" y2="713.409" stroke="#111111" stroke-width="3" stroke-linecap="round"/>
<line x1="1.5" y1="-1.5" x2="380.072" y2="-1.5" transform="matrix(-0.976904 -0.213679 0.229827 -0.973231 586.851 363.289)" stroke="#111111" stroke-width="3" stroke-linecap="round"/>
<line x1="1.5" y1="-1.5" x2="174.274" y2="-1.5" transform="matrix(-0.897672 -0.440664 0.468284 -0.883578 460.833 488.647)" stroke="#111111" stroke-width="3" stroke-linecap="round"/>
<line x1="1.5" y1="-1.5" x2="159.216" y2="-1.5" transform="matrix(0.434881 -0.900488 0.912835 0.408329 235.272 557.951)" stroke="#111111" stroke-width="3" stroke-linecap="round"/>
<line x1="1.5" y1="-1.5" x2="156.995" y2="-1.5" transform="matrix(-0.567923 -0.823082 0.842614 -0.538518 304.105 413.229)" stroke="#111111" stroke-width="3" stroke-linecap="round"/>
<line x1="1.5" y1="-1.5" x2="176.008" y2="-1.5" transform="matrix(-0.996284 -0.0861234 0.0929242 -0.995673 638.741 502.916)" stroke="#111111" stroke-width="3" stroke-linecap="round"/>
<line x1="594.004" y1="552.719" x2="462.719" y2="490.996" stroke="#111111" stroke-width="3" stroke-linecap="round"/>
<line x1="636.135" y1="505.117" x2="594.117" y2="552.865" stroke="#111111" stroke-width="3" stroke-linecap="round"/>
<line x1="573.655" y1="762.359" x2="594.359" y2="553.345" stroke="#111111" stroke-width="3" stroke-linecap="round"/>
<line x1="1.5" y1="-1.5" x2="263.124" y2="-1.5" transform="matrix(-0.628284 -0.777984 0.800762 -0.598983 805 708.789)" stroke="#111111" stroke-width="3" stroke-linecap="round"/>
<line x1="670.374" y1="879.637" x2="637.378" y2="504.541" stroke="#111111" stroke-width="3" stroke-linecap="round"/>
<line x1="1.5" y1="-1.5" x2="147.457" y2="-1.5" transform="matrix(-0.348354 -0.937363 0.945549 -0.325479 638.741 502.916)" stroke="#111111" stroke-width="3" stroke-linecap="round"/>
<line x1="1.5" y1="-1.5" x2="146.035" y2="-1.5" transform="matrix(-0.323 -0.946399 0.953492 -0.30142 214.092 281.755)" stroke="#111111" stroke-width="3" stroke-linecap="round"/>
<line x1="1.5" y1="-1.5" x2="53.0952" y2="-1.5" transform="matrix(0.620699 -0.784049 0.80643 0.59133 214.092 284.813)" stroke="#111111" stroke-width="3" stroke-linecap="round"/>
<line x1="1.5" y1="-1.5" x2="122.27" y2="-1.5" transform="matrix(0.633143 0.774035 -0.797065 0.603894 166.438 146.205)" stroke="#111111" stroke-width="3" stroke-linecap="round"/>
<line x1="1.5" y1="-1.5" x2="362.447" y2="-1.5" transform="matrix(0.939831 0.341641 -0.365331 0.930878 244.803 242.007)" stroke="#111111" stroke-width="3" stroke-linecap="round"/>
<line x1="-5.72134" y1="274.897" x2="163.717" y2="145.109" stroke="#111111" stroke-width="3" stroke-linecap="round"/>
<line x1="1.5" y1="-1.5" x2="141.494" y2="-1.5" transform="matrix(0.318446 -0.947941 0.954844 0.297107 167.498 420.363)" stroke="#111111" stroke-width="3" stroke-linecap="round"/>
<line x1="1.5" y1="-1.5" x2="152.793" y2="-1.5" transform="matrix(-0.42553 -0.904944 0.916814 -0.399315 233.154 555.913)" stroke="#111111" stroke-width="3" stroke-linecap="round"/>
<line x1="165.387" y1="416.495" x2="-5.79136" y2="276.111" stroke="#111111" stroke-width="3" stroke-linecap="round"/>
<line x1="1.5" y1="-1.5" x2="154.326" y2="-1.5" transform="matrix(0.224264 -0.974528 0.978029 0.208469 426.946 641.523)" stroke="#111111" stroke-width="3" stroke-linecap="round"/>
<line x1="571.888" y1="761.195" x2="426.195" y2="640.112" stroke="#111111" stroke-width="3" stroke-linecap="round"/>
<line x1="1.5" y1="-1.5" x2="207.196" y2="-1.5" transform="matrix(-0.918437 -0.395566 0.421636 -0.906765 426.946 638.466)" stroke="#111111" stroke-width="3" stroke-linecap="round"/>
<line x1="290.01" y1="680.266" x2="234.538" y2="559.941" stroke="#111111" stroke-width="3" stroke-linecap="round"/>
<line x1="573.399" y1="763.392" x2="103.392" y2="730.601" stroke="#111111" stroke-width="3" stroke-linecap="round"/>
<line x1="668.172" y1="878.077" x2="102.077" y2="731.827" stroke="#111111" stroke-width="3" stroke-linecap="round"/>
<line x1="572.137" y1="763.015" x2="290.015" y2="679.863" stroke="#111111" stroke-width="3" stroke-linecap="round"/>
<line x1="1.5" y1="-1.5" x2="117.979" y2="-1.5" transform="matrix(0.983825 0.179134 -0.192886 0.981221 113.49 537.568)" stroke="#111111" stroke-width="3" stroke-linecap="round"/>
<line x1="114.892" y1="537.121" x2="102.592" y2="731.598" stroke="#111111" stroke-width="3" stroke-linecap="round"/>
<line x1="-6.00877" y1="275.731" x2="114.221" y2="535.577" stroke="#111111" stroke-width="3" stroke-linecap="round"/>
<line x1="-59.9339" y1="3.51923" x2="165.958" y2="144.139" stroke="#111111" stroke-width="3" stroke-linecap="round"/>
<line x1="-8.13606" y1="92.9872" x2="165.426" y2="144.341" stroke="#111111" stroke-width="3" stroke-linecap="round"/>
<line x1="1.5" y1="-1.5" x2="103.946" y2="-1.5" transform="matrix(0.904196 0.427118 -0.45329 0.891363 117.178 240.891)" stroke="#111111" stroke-width="3" stroke-linecap="round"/>
<line x1="166.059" y1="145.157" x2="119.009" y2="240.32" stroke="#111111" stroke-width="3" stroke-linecap="round"/>
<line x1="117.966" y1="240.852" x2="-6.14779" y2="276.034" stroke="#111111" stroke-width="3" stroke-linecap="round"/>
<line x1="1.5" y1="-1.5" x2="472.124" y2="-1.5" transform="matrix(-0.885414 -0.464802 0.493071 -0.869989 586.851 363.289)" stroke="#111111" stroke-width="3" stroke-linecap="round"/>
<line x1="1.5" y1="-1.5" x2="117.259" y2="-1.5" transform="matrix(0.329929 -0.944006 0.951391 0.307986 462.951 487.628)" stroke="#111111" stroke-width="3" stroke-linecap="round"/>
<line x1="1.5" y1="-1.5" x2="299.784" y2="-1.5" transform="matrix(0.952529 0.304449 -0.326198 0.945301 214.092 284.813)" stroke="#111111" stroke-width="3" stroke-linecap="round"/>
<line x1="1.5" y1="-1.5" x2="85.932" y2="-1.5" transform="matrix(0.993183 -0.116568 0.125708 0.992067 500.016 376.538)" stroke="#111111" stroke-width="3" stroke-linecap="round"/>
</svg>
