<svg width="104" height="35" viewBox="0 0 104 35" fill="none" xmlns="http://www.w3.org/2000/svg">
<path d="M16.8047 34.0312H10.1016V23.5078C8.61719 23.1328 7.25 22.5312 6 21.7031C4.76562 20.875 3.70312 19.8906 2.8125 18.75C1.92188 17.5938 1.22656 16.3203 0.726562 14.9297C0.242188 13.5234 0 12.0469 0 10.5V0.421875H6.72656V10.5C6.72656 11.4219 6.89844 12.2969 7.24219 13.125C7.60156 13.9375 8.08594 14.6484 8.69531 15.2578C9.30469 15.8672 10.0156 16.3516 10.8281 16.7109C11.6562 17.0547 12.5312 17.2266 13.4531 17.2266C14.375 17.2266 15.2422 17.0547 16.0547 16.7109C16.8828 16.3516 17.6016 15.8672 18.2109 15.2578C18.8203 14.6484 19.2969 13.9375 19.6406 13.125C20 12.2969 20.1797 11.4219 20.1797 10.5V0.421875H26.8828V10.5C26.8828 12.0469 26.6328 13.5234 26.1328 14.9297C25.6484 16.3203 24.9609 17.5938 24.0703 18.75C23.1797 19.8906 22.1172 20.875 20.8828 21.7031C19.6484 22.5312 18.2891 23.1328 16.8047 23.5078V34.0312ZM56.7028 17.3672C56.7028 18.9609 56.4919 20.5 56.07 21.9844C55.6637 23.4531 55.0856 24.8359 54.3356 26.1328C53.5856 27.4141 52.6794 28.5859 51.6169 29.6484C50.5544 30.7109 49.3825 31.625 48.1012 32.3906C46.82 33.1406 45.4372 33.7188 43.9528 34.125C42.4684 34.5469 40.9294 34.7578 39.3356 34.7578C37.7419 34.7578 36.2028 34.5469 34.7184 34.125C33.2497 33.7188 31.8669 33.1406 30.57 32.3906C29.2887 31.625 28.1169 30.7109 27.0544 29.6484C25.9919 28.5859 25.0778 27.4141 24.3122 26.1328C23.5622 24.8359 22.9762 23.4531 22.5544 21.9844C22.1481 20.5 21.945 18.9609 21.945 17.3672C21.945 15.7734 22.1481 14.2344 22.5544 12.75C22.9762 11.2656 23.5622 9.88281 24.3122 8.60156C25.0778 7.32031 25.9919 6.14844 27.0544 5.08594C28.1169 4.02344 29.2887 3.11719 30.57 2.36719C31.8669 1.61719 33.2497 1.03906 34.7184 0.632812C36.2028 0.210938 37.7419 0 39.3356 0C40.9294 0 42.4684 0.210938 43.9528 0.632812C45.4372 1.03906 46.82 1.61719 48.1012 2.36719C49.3825 3.11719 50.5544 4.02344 51.6169 5.08594C52.6794 6.14844 53.5856 7.32031 54.3356 8.60156C55.0856 9.88281 55.6637 11.2656 56.07 12.75C56.4919 14.2344 56.7028 15.7734 56.7028 17.3672ZM50.0231 17.3672C50.0231 15.8984 49.7419 14.5156 49.1794 13.2188C48.6169 11.9062 47.8512 10.7734 46.8825 9.82031C45.9294 8.85156 44.7966 8.08594 43.4841 7.52344C42.1872 6.96094 40.8044 6.67969 39.3356 6.67969C37.8512 6.67969 36.4606 6.96094 35.1637 7.52344C33.8669 8.08594 32.7341 8.85156 31.7653 9.82031C30.7966 10.7734 30.0309 11.9062 29.4684 13.2188C28.9059 14.5156 28.6247 15.8984 28.6247 17.3672C28.6247 18.8359 28.9059 20.2188 29.4684 21.5156C30.0309 22.7969 30.7966 23.9219 31.7653 24.8906C32.7341 25.8594 33.8669 26.625 35.1637 27.1875C36.4606 27.75 37.8512 28.0312 39.3356 28.0312C40.8044 28.0312 42.1872 27.75 43.4841 27.1875C44.7966 26.625 45.9294 25.8594 46.8825 24.8906C47.8512 23.9219 48.6169 22.7969 49.1794 21.5156C49.7419 20.2188 50.0231 18.8359 50.0231 17.3672ZM60.1791 7.14844V20.6016H66.9056C67.8275 20.6016 68.6947 20.4297 69.5072 20.0859C70.3197 19.7266 71.0306 19.2422 71.64 18.6328C72.2494 18.0234 72.7259 17.3125 73.0697 16.5C73.4291 15.6719 73.6087 14.7969 73.6087 13.875C73.6087 12.9531 73.4291 12.0859 73.0697 11.2734C72.7259 10.4453 72.2494 9.72656 71.64 9.11719C71.0306 8.50781 70.3197 8.03125 69.5072 7.6875C68.6947 7.32812 67.8275 7.14844 66.9056 7.14844H60.1791ZM60.1791 34.0312H53.4525V0.421875H66.9056C68.14 0.421875 69.3275 0.585938 70.4681 0.914062C71.6087 1.22656 72.6712 1.67969 73.6556 2.27344C74.6556 2.85156 75.5619 3.55469 76.3744 4.38281C77.2025 5.19531 77.9056 6.10156 78.4837 7.10156C79.0775 8.10156 79.5306 9.17188 79.8431 10.3125C80.1712 11.4531 80.3353 12.6406 80.3353 13.875C80.3353 15.0312 80.1869 16.1562 79.89 17.25C79.6087 18.3438 79.1947 19.3828 78.6478 20.3672C78.1166 21.3516 77.4603 22.2578 76.6791 23.0859C75.8978 23.9141 75.0228 24.6328 74.0541 25.2422L77.7806 34.0312H70.6322L67.7025 27.2578L60.1791 27.3047V34.0312ZM103.593 20.6016C103.593 22.4609 103.241 24.2109 102.538 25.8516C101.835 27.4766 100.874 28.8984 99.6553 30.1172C98.4366 31.3203 97.0069 32.2734 95.3662 32.9766C93.7412 33.6797 91.9991 34.0312 90.1397 34.0312C88.2803 34.0312 86.5303 33.6797 84.8897 32.9766C83.2647 32.2734 81.8428 31.3203 80.6241 30.1172C79.4209 28.8984 78.4678 27.4766 77.7647 25.8516C77.0616 24.2109 76.71 22.4609 76.71 20.6016V0.421875H83.4131V20.6016C83.4131 21.5234 83.585 22.3906 83.9287 23.2031C84.2881 24.0156 84.7725 24.7266 85.3819 25.3359C85.9912 25.9453 86.7022 26.4297 87.5147 26.7891C88.3428 27.1328 89.2178 27.3047 90.1397 27.3047C91.0616 27.3047 91.9287 27.1328 92.7412 26.7891C93.5694 26.4297 94.2881 25.9453 94.8975 25.3359C95.5069 24.7266 95.9834 24.0156 96.3272 23.2031C96.6866 22.3906 96.8662 21.5234 96.8662 20.6016V0.421875H103.593V20.6016Z" fill="#111111"/>
</svg>
